<svg width="23" height="16" viewBox="0 0 23 16" fill="none" xmlns="http://www.w3.org/2000/svg">
<path fill-rule="evenodd" clip-rule="evenodd" d="M4.12562 7.39264L6.9575 10.4708C7.06343 10.5781 7.14838 10.7074 7.20731 10.8512C7.26624 10.9949 7.29792 11.1501 7.30048 11.3075C7.30303 11.4648 7.2764 11.6211 7.22218 11.767C7.16795 11.9129 7.08724 12.0455 6.98487 12.1568C6.88249 12.268 6.76054 12.3558 6.6263 12.4147C6.49205 12.4736 6.34826 12.5026 6.2035 12.4998C6.05874 12.497 5.91598 12.4626 5.78373 12.3986C5.65148 12.3345 5.53245 12.2422 5.43375 12.127L0.761875 7.04889L0 6.22077L0.761875 5.39264L5.43375 0.314518C5.63813 0.107518 5.90844 -0.00517401 6.18775 0.000182573C6.46706 0.00553916 6.73355 0.128527 6.93108 0.343234C7.12861 0.557942 7.24176 0.847606 7.24669 1.1512C7.25162 1.4548 7.14794 1.74862 6.9575 1.97077L4.12562 5.04889H18.3281C19.5672 5.04889 20.7555 5.58391 21.6316 6.53624C22.5078 7.48857 23 8.78022 23 10.127C23 11.4738 22.5078 12.7655 21.6316 13.7178C20.7555 14.6701 19.5672 15.2051 18.3281 15.2051H15.4531C15.1672 15.2051 14.893 15.0817 14.6908 14.8619C14.4886 14.6421 14.375 14.3441 14.375 14.0333C14.375 13.7225 14.4886 13.4244 14.6908 13.2046C14.893 12.9849 15.1672 12.8614 15.4531 12.8614H18.3281C18.9953 12.8614 19.6352 12.5733 20.1069 12.0605C20.5787 11.5477 20.8438 10.8522 20.8438 10.127C20.8438 9.40182 20.5787 8.70632 20.1069 8.19352C19.6352 7.68073 18.9953 7.39264 18.3281 7.39264H4.12562Z" fill="black"/>
</svg>
