<svg width="14" height="14" viewBox="0 0 14 14" fill="none" xmlns="http://www.w3.org/2000/svg">
<path fill-rule="evenodd" clip-rule="evenodd" d="M10.9721 1.65075C10.9404 1.57669 10.9073 1.53868 10.8009 1.43229C10.5569 1.18834 10.1615 1.18834 9.91751 1.43229C9.67356 1.67623 9.67356 2.07175 9.91751 2.3157L10.3592 2.7574L8.98926 4.1273C9.16175 4.24134 9.32466 4.3731 9.47575 4.52422C9.62692 4.67535 9.75868 4.83825 9.8727 5.01071L11.2426 3.64081L11.6843 4.08251C11.9283 4.32647 12.3238 4.32647 12.5677 4.08251C12.8116 3.83857 12.8116 3.44306 12.5677 3.19911C12.4613 3.09272 12.4233 3.05962 12.3492 3.02789C12.2627 2.99077 12.0798 2.94036 11.6843 2.94036H11.0596V2.3157C11.0596 1.92018 11.0093 1.73737 10.9721 1.65075ZM10.3858 6.26444C10.5606 7.07309 10.5133 7.95495 10.3469 8.77018C10.0418 10.266 9.29418 11.7731 8.39158 12.6757C6.52342 14.5438 3.44827 14.3981 1.5251 12.4749C-0.398072 10.5517 -0.543827 7.47654 1.32433 5.60838C2.2269 4.70583 3.734 3.9582 5.22981 3.65303C6.04509 3.4867 6.92687 3.43938 7.7356 3.6142L8.66777 2.682C8.33503 1.98542 8.45713 1.12584 9.03407 0.54888C9.76593 -0.18296 10.9525 -0.18296 11.6843 0.54888C11.6872 0.551828 11.6902 0.554818 11.6933 0.557858C11.8084 0.672847 11.99 0.854224 12.1204 1.15862C12.1915 1.32437 12.2416 1.51134 12.2722 1.72781C12.4886 1.75843 12.6756 1.80854 12.8414 1.87957C13.1458 2.01003 13.3272 2.19161 13.4421 2.30672C13.4452 2.30976 13.4482 2.31275 13.4511 2.3157C14.183 3.04754 14.183 4.23408 13.4511 4.96592C12.8742 5.54291 12.0145 5.66501 11.318 5.33219L10.3858 6.26444ZM5.47957 4.87714C4.16995 5.14432 2.9019 5.79761 2.20773 6.49182C0.882406 7.81711 0.916429 10.0994 2.40851 11.5915C3.90059 13.0836 6.18285 13.1176 7.50822 11.7923C8.20235 11.0981 8.85567 9.83002 9.12286 8.52048C9.39479 7.18761 9.2263 6.04156 8.59239 5.40765C7.9584 4.77366 6.81243 4.60522 5.47957 4.87714Z" fill="black"/>
</svg>
