<svg width="34" height="33" viewBox="0 0 34 33" fill="none" xmlns="http://www.w3.org/2000/svg">
<path d="M31.5729 0H23.4824C22.8387 0 22.2214 0.185772 21.7662 0.516449C21.311 0.847125 21.0553 1.29562 21.0553 1.76327C21.0553 2.23091 21.311 2.67941 21.7662 3.01008C22.2214 3.34076 22.8387 3.52653 23.4824 3.52653H25.7073L22.544 5.82906C20.9242 4.85119 19.0169 4.15663 16.9692 3.79892C14.9214 3.44122 12.788 3.42993 10.7333 3.76593C8.67868 4.10193 6.75767 4.77624 5.11844 5.73687C3.47921 6.6975 2.16554 7.91879 1.27873 9.30657C0.391916 10.6943 -0.0443528 12.2115 0.00356004 13.7412C0.0514729 15.2708 0.582288 16.772 1.55508 18.1291C2.52787 19.4861 3.91664 20.6627 5.61433 21.5682C7.31201 22.4736 9.27325 23.0838 11.3468 23.3515V24.6857H7.30162C6.65791 24.6857 6.04056 24.8715 5.58538 25.2022C5.13021 25.5329 4.8745 25.9813 4.8745 26.449C4.8745 26.9166 5.13021 27.3651 5.58538 27.6958C6.04056 28.0265 6.65791 28.2123 7.30162 28.2123H11.3468V31.151C11.3468 31.6187 11.6025 32.0672 12.0577 32.3979C12.5129 32.7285 13.1302 32.9143 13.774 32.9143C14.4177 32.9143 15.035 32.7285 15.4902 32.3979C15.9454 32.0672 16.2011 31.6187 16.2011 31.151V28.2123H20.2463C20.89 28.2123 21.5073 28.0265 21.9625 27.6958C22.4177 27.3651 22.6734 26.9166 22.6734 26.449C22.6734 25.9813 22.4177 25.5329 21.9625 25.2022C21.5073 24.8715 20.89 24.6857 20.2463 24.6857H16.2011V23.3515C18.3733 23.07 20.4202 22.4126 22.1687 21.4349C23.9172 20.4572 25.3159 19.1879 26.2464 17.7344C27.1769 16.281 27.6119 14.6861 27.5145 13.0847C27.4172 11.4832 26.7903 9.92242 25.6871 8.53421L29.1457 6.02449V7.64082C29.1457 8.10847 29.4015 8.55696 29.8566 8.88764C30.3118 9.21831 30.9291 9.40409 31.5729 9.40409C32.2166 9.40409 32.8339 9.21831 33.2891 8.88764C33.7443 8.55696 34 8.10847 34 7.64082V1.76327C34 1.29562 33.7443 0.847125 33.2891 0.516449C32.8339 0.185772 32.2166 0 31.5729 0ZM13.774 19.9837C12.0138 19.9837 10.2932 19.6045 8.82968 18.8941C7.36617 18.1837 6.22551 17.1739 5.55193 15.9925C4.87835 14.8112 4.70211 13.5112 5.0455 12.2571C5.38888 11.0029 6.23647 9.8509 7.48108 8.94671C8.7257 8.04252 10.3114 7.42676 12.0378 7.17729C13.7641 6.92783 15.5535 7.05586 17.1796 7.54521C18.8058 8.03455 20.1957 8.86323 21.1736 9.92644C22.1515 10.9897 22.6734 12.2397 22.6734 13.5184C22.6707 15.2325 21.7323 16.8758 20.0639 18.0879C18.3955 19.2999 16.1334 19.9817 13.774 19.9837Z" fill="black"/>
</svg>
