<svg width="31" height="30" viewBox="0 0 31 30" fill="none" xmlns="http://www.w3.org/2000/svg">
<path d="M15.5001 21.2431C16.2533 21.2431 17.3099 18.0246 17.5818 17.0838C18.426 14.3603 19.1196 10.6468 19.1196 7.57606C19.1196 3.91178 18.0635 0 15.5001 0C12.9367 0 11.8806 3.91178 11.8806 7.57606C11.8806 10.6468 12.5752 14.3603 13.4194 17.0838C13.6904 18.0246 14.7464 21.2431 15.5001 21.2431Z" fill="black"/>
<path d="M15.5001 23.521C13.66 23.521 12.1526 24.9803 12.1526 26.7605C12.1526 28.5403 13.66 30.0001 15.5001 30.0001C17.3402 30.0001 18.8482 28.5403 18.8482 26.7605C18.8482 24.9803 17.3402 23.521 15.5001 23.521Z" fill="black"/>
</svg>
