<svg width="34" height="34" viewBox="0 0 34 34" fill="none" xmlns="http://www.w3.org/2000/svg">
<path d="M16.9738 0C13.5583 0 10.7602 2.89282 10.7602 6.42397C10.7602 8.44611 11.6788 10.2577 13.1046 11.4378H7.2745L0 34H33.9477L26.6732 11.4378H20.8431C22.2688 10.2577 23.1875 8.44611 23.1875 6.42397C23.1875 2.89282 20.3894 0 16.9738 0ZM16.9738 2.82028C18.9151 2.82028 20.4595 4.41703 20.4595 6.42397C20.4595 8.43091 18.9151 10.0277 16.9738 10.0277C15.0326 10.0277 13.4881 8.43091 13.4881 6.42397C13.4881 4.41703 15.0326 2.82028 16.9738 2.82028ZM10.7439 18.7196H12.5246V21.3255L15.0914 18.7195H17.1588L13.8335 22.0999L17.5011 25.8583H15.2719L12.5246 23.0468V25.8583H10.7439V18.7196ZM19.832 20.3836C20.1927 20.3836 20.5104 20.4567 20.7848 20.6034C21.0591 20.75 21.3105 20.981 21.5387 21.2967V20.5031H23.2037V25.3181C23.2037 26.1788 22.94 26.8354 22.4127 27.2881C21.8886 27.744 21.127 27.9718 20.1279 27.9718C19.8042 27.9718 19.4914 27.9463 19.1891 27.8953C18.8798 27.8425 18.5751 27.7642 18.2779 27.6611V26.3269C18.5678 26.4991 18.8516 26.6266 19.1289 26.7095C19.4065 26.7955 19.6856 26.8386 19.9662 26.8386C20.5089 26.8386 20.9066 26.716 21.1594 26.4704C21.4123 26.2251 21.5387 25.841 21.5387 25.3182V24.95C21.3106 25.2623 21.0592 25.4918 20.7848 25.6385C20.5104 25.785 20.1927 25.8584 19.832 25.8584C19.1998 25.8584 18.6773 25.6019 18.2642 25.0887C17.851 24.5722 17.6444 23.9156 17.6444 23.1187C17.6444 22.3185 17.851 21.6634 18.2642 21.1534C18.6773 20.6403 19.1998 20.3836 19.832 20.3836ZM20.4472 21.6171C20.1049 21.6171 19.8381 21.748 19.647 22.0092C19.4558 22.2707 19.3602 22.6405 19.3602 23.1187C19.3602 23.6096 19.4527 23.9825 19.6377 24.2374C19.8228 24.4893 20.0926 24.6152 20.4472 24.6152C20.7925 24.6152 21.0607 24.4844 21.2519 24.2231C21.443 23.9616 21.5386 23.5935 21.5386 23.1186C21.5386 22.6404 21.443 22.2706 21.2518 22.0093C21.0607 21.7479 20.7925 21.6171 20.4471 21.6171H20.4472Z" fill="black"/>
</svg>
