<svg width="30" height="27" viewBox="0 0 30 27" fill="none" xmlns="http://www.w3.org/2000/svg">
<path d="M15 11V26M15 11C15 7.49967 15 5.74952 14.3218 4.41256C13.7252 3.23655 12.7734 2.28042 11.6026 1.6812C10.2716 1 8.52922 1 5.04444 1H3.48889C2.6177 1 2.1821 1 1.84935 1.1703C1.55666 1.32011 1.31869 1.55914 1.16954 1.85314C1 2.18738 1 2.62492 1 3.5V20.375C1 21.2502 1 21.6877 1.16954 22.0219C1.31869 22.3159 1.55666 22.5548 1.84935 22.7047C2.1821 22.875 2.6177 22.875 3.48889 22.875H8.07261C8.91291 22.875 9.33305 22.875 9.73933 22.9478C10.0999 23.0123 10.4517 23.1192 10.7874 23.2666C11.1656 23.4323 11.5152 23.6664 12.2143 24.1347L15 26M15 11C15 7.49967 15 5.74952 15.6782 4.41256C16.2748 3.23655 17.2266 2.28042 18.3973 1.6812C19.7284 1 21.4708 1 24.9556 1H26.5111C27.3824 1 27.8179 1 28.1507 1.1703C28.4434 1.32011 28.6813 1.55914 28.8304 1.85314C29 2.18738 29 2.62492 29 3.5V20.375C29 21.2502 29 21.6877 28.8304 22.0219C28.6813 22.3159 28.4434 22.5548 28.1507 22.7047C27.8179 22.875 27.3824 22.875 26.5111 22.875H21.9274C21.087 22.875 20.6669 22.875 20.2607 22.9478C19.9 23.0123 19.5483 23.1192 19.2126 23.2666C18.8344 23.4323 18.4848 23.6664 17.7857 24.1347L15 26" stroke="black" stroke-width="2" stroke-linecap="round" stroke-linejoin="round"/>
</svg>
