<svg width="143" height="41" viewBox="0 0 143 41" fill="none" xmlns="http://www.w3.org/2000/svg">
<path d="M0 20.5C0 15.3834 0 12.8251 0.617704 10.7398C2.06032 5.86959 5.86959 2.06032 10.7398 0.617704C12.8251 0 15.3834 0 20.5 0H122.5C127.617 0 130.175 0 132.26 0.617704C137.13 2.06032 140.94 5.86959 142.382 10.7398C143 12.8251 143 15.3834 143 20.5C143 25.6166 143 28.1749 142.382 30.2602C140.94 35.1304 137.13 38.9397 132.26 40.3823C130.175 41 127.617 41 122.5 41H20.5C15.3834 41 12.8251 41 10.7398 40.3823C5.86959 38.9397 2.06032 35.1304 0.617704 30.2602C0 28.1749 0 25.6166 0 20.5Z" fill="#64A793" fill-opacity="0.8"/>
</svg>
