<svg width="9" height="9" viewBox="0 0 9 9" fill="none" xmlns="http://www.w3.org/2000/svg">
<path d="M3.5568 6.4609L1.61025 4.92684C1.43342 4.78736 1.19354 4.70898 0.943395 4.70894C0.69325 4.70889 0.453327 4.78718 0.276406 4.92659C0.099485 5.066 5.8981e-05 5.25511 2.62327e-08 5.45231C-5.89285e-05 5.64951 0.0992541 5.83866 0.276092 5.97813L3.83281 8.78207C3.92039 8.85116 4.02438 8.90597 4.13884 8.94336C4.2533 8.98075 4.37599 9 4.49989 9C4.62379 9 4.74647 8.98075 4.86093 8.94336C4.9754 8.90597 5.07939 8.85116 5.16697 8.78207L8.72369 5.97863C8.81129 5.90957 8.88078 5.82758 8.92819 5.73734C8.9756 5.64711 9 5.5504 9 5.45273C9 5.35507 8.9756 5.25836 8.92819 5.16812C8.88078 5.07789 8.81129 4.9959 8.72369 4.92684C8.63608 4.85778 8.53209 4.803 8.41763 4.76562C8.30317 4.72825 8.18049 4.70901 8.05661 4.70901C7.93272 4.70901 7.81004 4.72825 7.69558 4.76562C7.58113 4.803 7.47713 4.85778 7.38953 4.92684L5.44298 6.4609V0.743487C5.44298 0.546302 5.34362 0.357193 5.16676 0.217762C4.98989 0.0783315 4.75001 0 4.49989 0C4.24977 0 4.00989 0.0783315 3.83302 0.217762C3.65616 0.357193 3.5568 0.546302 3.5568 0.743487V6.4609Z" fill="black"/>
</svg>
