<svg width="14" height="15" viewBox="0 0 14 15" fill="none" xmlns="http://www.w3.org/2000/svg">
<path fill-rule="evenodd" clip-rule="evenodd" d="M0.194683 1.28218C-0.0636155 0.990312 -0.0650748 0.515444 0.19142 0.221528C0.447921 -0.0723889 0.865245 -0.0740464 1.12354 0.217815C3.93806 3.3981 6.07775 7.21302 7.35135 11.8216C7.44679 11.6097 7.54889 11.3916 7.65599 11.1701C7.57004 11.0104 7.50914 10.8296 7.48041 10.6335L7.32934 9.60229C6.86387 6.4241 8.68744 3.395 11.4601 2.74088L12.1784 2.57142C12.8962 2.40205 13.5976 2.93177 13.7393 3.75032L13.8995 4.67577C14.474 7.9946 12.5251 11.1975 9.59293 11.7536L8.99742 11.8665C8.93592 11.8782 8.87476 11.8848 8.81412 11.8866C8.58442 12.3611 8.38372 12.81 8.2281 13.2015C8.11507 13.4859 8.0303 13.7292 7.97547 13.9232C7.94818 14.0199 7.93038 14.097 7.9199 14.1557C7.91081 14.2071 7.90949 14.2322 7.90929 14.2364C7.91443 14.5587 7.73792 14.8487 7.47091 14.9567C7.20397 15.0646 6.90625 14.9663 6.73152 14.7126L0.919318 6.27515C0.694752 5.94916 0.744957 5.47773 1.03145 5.22221C1.31795 4.96668 1.73224 5.0238 1.95681 5.3498L5.58613 10.6185C4.3534 6.98173 2.51811 3.90755 0.194683 1.28218ZM9.69582 10.1981C11.7148 9.61992 13.0158 7.33205 12.6061 4.96563L12.446 4.04018L11.7277 4.20964C9.65864 4.69777 8.29428 6.94933 8.62456 9.31984C9.23226 8.23925 9.88142 7.22188 10.3992 6.60635C10.6509 6.3071 11.0682 6.29675 11.3311 6.58318C11.5941 6.86968 11.6032 7.34442 11.3515 7.6436C10.9029 8.17685 10.2889 9.13752 9.69582 10.1981Z" fill="black"/>
</svg>
