<svg width="24" height="28" viewBox="0 0 24 28" fill="none" xmlns="http://www.w3.org/2000/svg">
<path d="M23.9558 22.6667V24H0V22.6667L2.66176 20V12C2.66176 7.86667 5.36344 4.22667 9.31615 3.05333V2.66667C9.31615 1.95942 9.59659 1.28115 10.0958 0.781048C10.5949 0.280951 11.272 0 11.9779 0C12.6838 0 13.3609 0.280951 13.8601 0.781048C14.3592 1.28115 14.6397 1.95942 14.6397 2.66667V3.05333C18.5924 4.22667 21.2941 7.86667 21.2941 12V20L23.9558 22.6667ZM14.6397 25.3333C14.6397 26.0406 14.3592 26.7189 13.8601 27.219C13.3609 27.719 12.6838 28 11.9779 28C11.272 28 10.5949 27.719 10.0958 27.219C9.59659 26.7189 9.31615 26.0406 9.31615 25.3333" fill="black"/>
</svg>
