<svg width="15" height="15" viewBox="0 0 15 15" fill="none" xmlns="http://www.w3.org/2000/svg">
<path d="M14.0211 6.10027H8.88596V0.957209C8.88596 0.428571 8.45808 0 7.93023 0H7.04658C6.51876 0 6.09084 0.42854 6.09084 0.957209V6.10027H0.955734C0.427911 6.10027 0 6.52881 0 7.05748V7.9425C0 8.47114 0.42788 8.89971 0.955734 8.89971H6.09088V14.0428C6.09088 14.5714 6.51876 15 7.04661 15H7.93026C8.45808 15 8.88599 14.5714 8.88599 14.0428V8.89968H14.0211C14.549 8.89968 14.9769 8.47114 14.9769 7.94247V7.05745C14.9768 6.52881 14.5489 6.10027 14.0211 6.10027Z" fill="#2B3B47"/>
</svg>
