<svg width="42" height="34" viewBox="0 0 42 34" fill="none" xmlns="http://www.w3.org/2000/svg">
<mask id="mask0_214_209" style="mask-type:luminance" maskUnits="userSpaceOnUse" x="0" y="0" width="42" height="34">
<path d="M7.70013 12.3123C7.70013 12.3123 2.81435 14.1873 2.00022 20.7497M34.2998 12.3123C34.2998 12.3123 39.1855 14.1873 39.9997 20.7497M15.3 12.3123C15.3 12.3123 19.86 13.4064 20.9999 18.8747C22.1399 13.4064 26.6999 12.3123 26.6999 12.3123M17.2 26.3746C17.2 26.3746 13.2101 27.0777 11.5001 31.9995M24.7999 26.3746C24.7999 26.3746 28.7898 27.0777 30.4998 31.9995" stroke="white" stroke-width="4" stroke-linecap="round"/>
<path d="M20.9999 28.2496C23.6233 28.2496 25.7499 26.151 25.7499 23.5622C25.7499 20.9734 23.6233 18.8747 20.9999 18.8747C18.3766 18.8747 16.25 20.9734 16.25 23.5622C16.25 26.151 18.3766 28.2496 20.9999 28.2496Z" fill="white" stroke="white" stroke-width="4" stroke-linecap="round" stroke-linejoin="round"/>
<path d="M30.4999 13.2498C33.6478 13.2498 36.1998 10.7314 36.1998 7.62489C36.1998 4.51833 33.6478 1.99997 30.4999 1.99997C27.3519 1.99997 24.7999 4.51833 24.7999 7.62489C24.7999 10.7314 27.3519 13.2498 30.4999 13.2498Z" fill="white" stroke="white" stroke-width="4" stroke-linecap="round" stroke-linejoin="round"/>
<path d="M11.4999 13.2498C14.6479 13.2498 17.1998 10.7314 17.1998 7.62489C17.1998 4.51833 14.6479 1.99997 11.4999 1.99997C8.35191 1.99997 5.79997 4.51833 5.79997 7.62489C5.79997 10.7314 8.35191 13.2498 11.4999 13.2498Z" fill="white" stroke="white" stroke-width="4" stroke-linecap="round" stroke-linejoin="round"/>
</mask>
<g mask="url(#mask0_214_209)">
<path d="M-1.79953 -5.49992H43.7998V39.4994H-1.79953V-5.49992Z" fill="black"/>
</g>
</svg>
