<svg width="87" height="16" viewBox="0 0 87 16" fill="none" xmlns="http://www.w3.org/2000/svg">
<path d="M8.68416 3.51747C8.42898 3.02638 8.13089 2.64766 7.70521 2.30707C7.27953 1.96697 6.81148 1.70163 6.25765 1.55064C5.70437 1.36153 5.15054 1.28627 4.55492 1.28627C3.91639 1.28627 3.36256 1.36153 2.80984 1.55064C2.25657 1.70163 1.78799 1.96647 1.3623 2.30707C0.936619 2.64717 0.596175 3.02588 0.340431 3.51747C0.127589 4.00955 0 4.57687 0 5.21994V10.7803C0 11.4229 0.127589 11.9907 0.340431 12.4823C0.595618 12.9734 0.936619 13.3902 1.3623 13.6927C1.78799 14.0328 2.25657 14.2982 2.80984 14.4873C3.36312 14.6383 3.91639 14.714 4.55492 14.714C5.1511 14.714 5.70437 14.6383 6.25765 14.4873C6.81093 14.2982 7.27953 14.0328 7.70521 13.6927C8.13089 13.3902 8.42898 12.9739 8.68416 12.4823C8.93991 11.9907 9.06749 11.4229 9.06749 10.7803V5.21994C9.06749 4.57687 8.93991 4.00955 8.68416 3.51747ZM6.34291 10.7803C6.34291 11.3096 6.17297 11.7635 5.83198 12.066C5.53389 12.4066 5.06585 12.5581 4.55492 12.5581C4.00164 12.5581 3.53306 12.4066 3.23497 12.066C2.89454 11.7635 2.72404 11.3096 2.72404 10.7803V5.25756C2.72404 4.69023 2.89454 4.23628 3.23497 3.93381C3.53306 3.59321 4.00108 3.44222 4.55492 3.44222C5.06585 3.44222 5.53389 3.59321 5.83198 3.93381C6.17241 4.23628 6.34291 4.69023 6.34291 5.25756V10.7803Z" fill="#CECECF"/>
<path d="M20.8175 8.32111C20.6893 7.71616 20.3066 7.14884 19.7104 6.61914C19.4123 6.35428 19.0295 6.12755 18.5609 5.97656C18.0929 5.82507 17.582 5.74934 16.9429 5.74934C16.432 5.74934 16.0063 5.78696 15.5806 5.93844C15.1973 6.08943 14.8992 6.24092 14.6863 6.39192V3.55527H20.7317V1.39932H12.2175V8.85132H14.7292C14.8139 8.58647 14.9844 8.35924 15.2825 8.13251C15.5377 7.90577 15.9634 7.7924 16.5172 7.7924C17.1981 7.7924 17.6667 7.98152 17.9224 8.39736C18.2205 8.8137 18.3481 9.38103 18.3481 10.1751C18.3481 10.5914 18.3052 10.9696 18.2205 11.3102C18.1352 11.6508 18.0076 11.9157 17.7519 12.1424C17.4538 12.4073 16.9858 12.5588 16.4749 12.5588C15.8787 12.5588 15.453 12.4073 15.1549 12.1424C14.8997 11.8399 14.6869 11.4241 14.644 10.932H11.9194C11.9623 11.386 12.047 11.8776 12.2175 12.3315C12.3451 12.8231 12.6855 13.2771 13.1117 13.6553C13.4522 13.9578 13.8779 14.185 14.4317 14.4122C15.0279 14.639 15.6664 14.7147 16.4749 14.7147C17.241 14.7147 17.8801 14.639 18.4333 14.4122C18.9866 14.185 19.4123 13.9578 19.7533 13.6553C20.3066 13.1637 20.6476 12.6345 20.8175 12.1043C20.9874 11.5375 21.0727 10.8939 21.0727 10.1751C21.0727 9.53152 20.9874 8.92656 20.8175 8.32111Z" fill="#CECECF"/>
<path d="M28.5656 0L22.6055 16H25.1601L31.1202 0H28.5656Z" fill="#CECECF"/>
<path d="M36.7395 1.39932L33.7168 3.74437V6.31666L36.7395 3.97161V14.6003H39.4641V1.39932H36.7395Z" fill="#CECECF"/>
<path d="M48.6168 1.39932L45.5941 3.74437V6.31666L48.6168 3.97161V14.6003H51.3414V1.39932H48.6168Z" fill="#CECECF"/>
<path d="M56.5778 8.17032V10.4396H63.0065V8.17032H56.5778Z" fill="#CECECF"/>
<path d="M74.5856 3.51747C74.3728 3.02638 74.0324 2.64766 73.6061 2.30707C73.2234 1.96697 72.7124 1.70163 72.1586 1.55064C71.6053 1.36153 71.0515 1.28627 70.4558 1.28627C69.8173 1.28627 69.264 1.36153 68.7108 1.55064C68.1575 1.70163 67.6889 1.96647 67.2632 2.30707C66.8375 2.64717 66.4971 3.02588 66.2843 3.51747C66.0291 4.00955 65.9009 4.57687 65.9009 5.21994V10.7803C65.9009 11.4229 66.0285 11.9907 66.2843 12.4823C66.4971 12.9734 66.8375 13.3902 67.2632 13.6927C67.6889 14.0328 68.1575 14.2982 68.7108 14.4873C69.264 14.6383 69.8179 14.714 70.4558 14.714C71.052 14.714 71.6053 14.6383 72.1586 14.4873C72.7119 14.2982 73.2228 14.0328 73.6061 13.6927C74.0318 13.3902 74.3728 12.9739 74.5856 12.4823C74.8408 11.9907 74.9684 11.4229 74.9684 10.7803V5.21994C74.969 4.57687 74.8414 4.00955 74.5856 3.51747ZM72.2444 10.7803C72.2444 11.3096 72.0739 11.7635 71.7334 12.066C71.4354 12.4066 71.0097 12.5581 70.4558 12.5581C69.9026 12.5581 69.4769 12.4066 69.1359 12.066C68.7955 11.7635 68.625 11.3096 68.625 10.7803V5.25756C68.625 4.69023 68.7955 4.23628 69.1359 3.93381C69.4763 3.59321 69.902 3.44222 70.4558 3.44222C71.0091 3.44222 71.4354 3.59321 71.7334 3.93381C72.0739 4.23628 72.2444 4.69023 72.2444 5.25756V10.7803Z" fill="#CECECF"/>
<path d="M86.4638 3.51747C86.251 3.02638 85.9105 2.64766 85.4849 2.30707C85.1015 1.96697 84.5906 1.70163 84.0373 1.55064C83.484 1.36153 82.9302 1.28627 82.3346 1.28627C81.696 1.28627 81.1422 1.36153 80.5889 1.55064C80.5466 1.55064 80.5042 1.58876 80.4613 1.58876C79.9504 1.73975 79.5247 2.00459 79.142 2.30707C78.7163 2.64717 78.4182 3.02588 78.1624 3.51747C77.9073 4.00955 77.7797 4.57687 77.7797 5.21994V10.7803C77.7797 11.4229 77.9073 11.9907 78.1624 12.4823C78.2053 12.5204 78.2053 12.5962 78.2477 12.6338C78.5034 13.0492 78.7586 13.4279 79.142 13.6927C79.5676 14.0328 80.0357 14.2982 80.5889 14.4873C81.1422 14.6383 81.696 14.714 82.3346 14.714C82.9302 14.714 83.484 14.6383 84.0373 14.4873C84.5906 14.2982 85.1015 14.0328 85.4849 13.6927C85.9105 13.3902 86.251 12.9739 86.4638 12.4823C86.7196 11.9907 86.8471 11.4229 86.8471 10.7803V5.21994C86.8471 4.57687 86.719 4.00955 86.4638 3.51747ZM84.122 10.7803C84.122 11.3096 83.9515 11.7635 83.654 12.066C83.3135 12.4066 82.8879 12.5581 82.334 12.5581C81.7807 12.5581 81.3545 12.4066 81.0146 12.066C80.6742 11.7635 80.5037 11.3096 80.5037 10.7803V5.25756C80.5037 4.69023 80.6736 4.23628 81.0146 3.93381C81.3551 3.59321 81.7807 3.44222 82.334 3.44222C82.8873 3.44222 83.313 3.59321 83.654 3.93381C83.9521 4.23628 84.122 4.69023 84.122 5.25756V10.7803Z" fill="#CECECF"/>
</svg>
