<svg width="89" height="18" viewBox="0 0 89 18" fill="none" xmlns="http://www.w3.org/2000/svg">
<path d="M0 9.49157L1.03087 6.57699H9.38121L8.35033 9.49157H0Z" fill="#CECECF"/>
<path d="M20.5336 17.295H17.4231L17.0851 0.145095H21.3941L21.3119 11.3219L29.9562 0.145095H34.2942L20.5336 17.295Z" fill="#CECECF"/>
<path d="M30.7514 17.295L37.4479 0.145095H41.6083L34.9118 17.295H30.7514Z" fill="#CECECF"/>
<path d="M55.6232 12.2382C55.2969 13.0732 54.8097 13.8104 54.1616 14.4533C53.5112 15.0961 52.7446 15.6373 51.8657 16.0781C50.984 16.5209 50.0146 16.8585 48.9536 17.0913C47.8964 17.3227 46.808 17.4403 45.69 17.4403C44.0752 17.4403 42.6974 17.2755 41.5592 16.9464C40.4188 16.6172 39.4969 16.027 38.7918 15.1761L42.3325 13.0081C42.7991 13.5532 43.4288 13.9315 44.2266 14.139C45.0217 14.349 45.909 14.4528 46.8885 14.4528C48.1456 14.4528 49.1648 14.2686 49.9476 13.8977C50.7298 13.5294 51.2556 13.0002 51.5254 12.3082C51.7573 11.7144 51.7227 11.2418 51.4226 10.8869C51.2656 10.728 51.0717 10.6064 50.8449 10.5259C50.6158 10.4455 50.247 10.373 49.7313 10.3085L47.3103 9.99675C46.3968 9.88505 45.6559 9.7108 45.0888 9.47946C44.52 9.24614 44.0702 8.9443 43.7344 8.57595C43.0242 7.7881 42.9561 6.66466 43.5265 5.20266C43.8271 4.43219 44.2697 3.73072 44.8558 3.09528C45.4441 2.46233 46.1448 1.91525 46.9639 1.45853C47.7813 0.999824 48.6977 0.642886 49.7162 0.386228C50.7348 0.12957 51.8232 0 52.9798 0C54.456 0 55.6824 0.152902 56.6613 0.458708C57.6414 0.762527 58.4465 1.27634 59.0824 1.99965L55.631 4.09511C55.174 3.58129 54.5823 3.25613 53.8559 3.1211C53.1324 2.98408 52.4189 2.91508 51.7221 2.91508C50.6041 2.91508 49.6972 3.12854 49.0027 3.55399C48.3082 3.97944 47.8434 4.48878 47.6115 5.08302C47.5232 5.3084 47.4858 5.52385 47.4936 5.73385C47.5025 5.94136 47.5802 6.13546 47.7305 6.31219C47.8869 6.47304 48.0998 6.60807 48.3647 6.72175C48.6306 6.83345 48.9815 6.91388 49.4235 6.96104L51.8439 7.27479C52.7787 7.38847 53.5224 7.54932 54.0817 7.75683C54.6382 7.96682 55.0734 8.25475 55.3897 8.62311C55.8042 9.04061 56.0216 9.55641 56.044 10.1655C56.0646 10.7757 55.9244 11.4657 55.6232 12.2382Z" fill="#CECECF"/>
<path d="M69.9114 17.295L69.837 14.2608H62.2667L59.7932 17.295H55.4523L69.9019 0.145095H73.1632L74.2494 17.295H69.9114ZM69.6638 5.2023L64.5335 11.4415H69.8315L69.6638 5.2023Z" fill="#CECECF"/>
<path d="M79.6188 9.49157L80.6497 6.57699H89L87.9691 9.49157H79.6188Z" fill="#CECECF"/>
</svg>
