<svg width="45" height="40" viewBox="0 0 45 40" fill="none" xmlns="http://www.w3.org/2000/svg">
<path d="M4.1748 8.12499H37.9688V4.02499C37.9688 3.84003 37.9226 3.65737 37.8336 3.49018C37.7446 3.323 37.6149 3.17546 37.454 3.0582C37.2931 2.94094 37.1049 2.85689 36.903 2.8121C36.7011 2.76731 36.4906 2.76291 36.2865 2.79921L3.94277 7.52421C3.70193 7.56683 3.47784 7.66476 3.29281 7.80827C3.10777 7.95177 2.96823 8.13585 2.88809 8.34218C3.29772 8.19822 3.73432 8.12453 4.1748 8.12499ZM40.7373 9.99999H4.1748C3.80184 9.99999 3.44416 10.1317 3.18044 10.3661C2.91671 10.6005 2.76855 10.9185 2.76855 11.25V33.75C2.76855 34.0815 2.91671 34.3995 3.18044 34.6339C3.44416 34.8683 3.80184 35 4.1748 35H40.7373C41.1103 35 41.468 34.8683 41.7317 34.6339C41.9954 34.3995 42.1436 34.0815 42.1436 33.75V11.25C42.1436 10.9185 41.9954 10.6005 41.7317 10.3661C41.468 10.1317 41.1103 9.99999 40.7373 9.99999ZM32.3438 25C31.7875 25 31.2437 24.8534 30.7812 24.5787C30.3187 24.304 29.9582 23.9135 29.7453 23.4567C29.5325 22.9999 29.4768 22.4972 29.5853 22.0123C29.6938 21.5273 29.9617 21.0819 30.355 20.7322C30.7483 20.3826 31.2495 20.1445 31.7951 20.048C32.3406 19.9516 32.9061 20.0011 33.42 20.1903C33.934 20.3795 34.3732 20.6999 34.6823 21.1111C34.9913 21.5222 35.1562 22.0055 35.1562 22.5C35.1562 23.163 34.8599 23.7989 34.3325 24.2678C33.805 24.7366 33.0897 25 32.3438 25Z" fill="black"/>
<path d="M2.75366 20.2734V9.0625C2.75366 8.09922 3.2564 7.61875 4.10894 7.5C7.20269 7.06797 13.6521 6.83594 13.6521 6.83594C13.6521 6.83594 12.92 8.08594 11.25 8.08594V10C12.876 10 14.0037 11.8359 14.0037 11.8359L7.45581 18.4375L2.75366 20.2734Z" fill="black"/>
</svg>
