<svg width="35" height="35" viewBox="0 0 35 35" fill="none" xmlns="http://www.w3.org/2000/svg">
<path d="M17.5067 12.7347C16.2718 12.7347 15.1154 13.1885 14.2399 14.0178C13.3685 14.8471 12.8852 15.9424 12.8852 17.112C12.8852 18.2816 13.3685 19.3769 14.2399 20.2062C15.1154 21.0316 16.2718 21.4893 17.5067 21.4893C18.7416 21.4893 19.898 21.0316 20.7736 20.2062C21.645 19.3769 22.1282 18.2816 22.1282 17.112C22.1282 15.9424 21.645 14.8471 20.7736 14.0178C20.3459 13.6096 19.8369 13.286 19.2761 13.0658C18.7153 12.8455 18.1138 12.733 17.5067 12.7347ZM34.5347 21.9469L31.8337 19.7603C31.9617 19.017 32.0278 18.2581 32.0278 17.5032C32.0278 16.7482 31.9617 15.9854 31.8337 15.2461L34.5347 13.0594C34.7388 12.894 34.8848 12.6736 34.9534 12.4277C35.022 12.1817 35.0099 11.9218 34.9188 11.6825L34.8816 11.5808C34.1383 9.61194 33.0245 7.78697 31.5942 6.19427L31.5198 6.11212C31.3461 5.9187 31.1146 5.77965 30.8559 5.71331C30.5971 5.64697 30.3232 5.65646 30.0702 5.74051L26.7166 6.87101C25.4776 5.90871 24.0982 5.14983 22.6031 4.62174L21.9547 1.30066C21.9058 1.05047 21.7777 0.820306 21.5874 0.640738C21.397 0.46117 21.1535 0.340702 20.8892 0.295338L20.7777 0.275779C18.6301 -0.0919263 16.3668 -0.0919263 14.2192 0.275779L14.1077 0.295338C13.8434 0.340702 13.5999 0.46117 13.4096 0.640738C13.2192 0.820306 13.0911 1.05047 13.0422 1.30066L12.3896 4.63739C10.9087 5.16969 9.52918 5.92673 8.30507 6.87883L4.92673 5.74051C4.67383 5.65579 4.3997 5.64596 4.14077 5.71234C3.88183 5.77872 3.65036 5.91816 3.4771 6.11212L3.40276 6.19427C1.97498 7.78867 0.861446 9.61318 0.115273 11.5808L0.0781028 11.6825C-0.107747 12.1714 0.0450629 12.7191 0.462193 13.0594L3.19626 15.2696C3.06823 16.005 3.00627 16.756 3.00627 17.4993C3.00627 18.2503 3.06823 19.0014 3.19626 19.729L0.470453 21.9391C0.266413 22.1045 0.120379 22.3249 0.0517698 22.5709C-0.0168398 22.8168 -0.00477412 23.0767 0.0863627 23.316L0.123533 23.4178C0.871063 25.3854 1.97377 27.2043 3.41102 28.8042L3.48536 28.8864C3.65904 29.0798 3.89052 29.2189 4.1493 29.2852C4.40808 29.3515 4.68201 29.3421 4.93499 29.258L8.31333 28.1197C9.54407 29.0781 10.9152 29.837 12.3979 30.3611L13.0504 33.6979C13.0994 33.948 13.2275 34.1782 13.4178 34.3578C13.6081 34.5373 13.8517 34.6578 14.116 34.7032L14.2275 34.7227C16.3962 35.0924 18.6172 35.0924 20.7859 34.7227L20.8974 34.7032C21.1618 34.6578 21.4053 34.5373 21.5956 34.3578C21.7859 34.1782 21.9141 33.948 21.963 33.6979L22.6114 30.3768C24.1065 29.8448 25.4859 29.0898 26.7249 28.1275L30.0784 29.258C30.3313 29.3427 30.6055 29.3526 30.8644 29.2862C31.1233 29.2198 31.3548 29.0804 31.5281 28.8864L31.6024 28.8042C33.0397 27.1965 34.1424 25.3854 34.8899 23.4178L34.9271 23.316C35.1047 22.831 34.9519 22.2873 34.5347 21.9469ZM17.5067 23.9889C13.4965 23.9889 10.2462 20.9103 10.2462 17.112C10.2462 13.3137 13.4965 10.2351 17.5067 10.2351C21.517 10.2351 24.7673 13.3137 24.7673 17.112C24.7673 20.9103 21.517 23.9889 17.5067 23.9889Z" fill="black"/>
</svg>
