<svg width="6" height="8" viewBox="0 0 6 8" fill="none" xmlns="http://www.w3.org/2000/svg">
<path d="M1.17594 0.15808L5.78386 3.70436C5.83855 3.74658 5.8772 3.79231 5.89981 3.84157C5.92278 3.89082 5.93427 3.94359 5.93427 3.99988C5.93427 4.05617 5.92278 4.10894 5.89981 4.1582C5.8772 4.20745 5.83855 4.25319 5.78386 4.29541L1.17594 7.85224C1.04832 7.95075 0.888796 8 0.697369 8C0.505942 8 0.341861 7.94723 0.205128 7.84168C0.0683941 7.73614 2.72486e-05 7.61301 2.72486e-05 7.47228C2.72486e-05 7.33155 0.0683941 7.20842 0.205128 7.10288L4.2251 3.99988L0.205128 0.896888C0.0775098 0.79838 0.0137008 0.677075 0.0137008 0.532973C0.0137008 0.388589 0.0820677 0.263624 0.218801 0.15808C0.355535 0.0525364 0.515057 -0.00023633 0.697369 -0.00023633C0.87968 -0.00023633 1.0392 0.0525364 1.17594 0.15808Z" fill="black"/>
</svg>
