<svg width="83" height="7" viewBox="0 0 83 7" fill="none" xmlns="http://www.w3.org/2000/svg">
<path d="M0 0.0382581V1.24869H2.04323V6.96025H3.53316V1.24869H5.57639V0.0382581H0Z" fill="#CECECF"/>
<path d="M12.5161 2.61119C12.5161 2.34633 12.4738 2.1191 12.4309 1.89236C12.3885 1.66562 12.3033 1.43839 12.218 1.24927C12.1757 1.21165 12.1757 1.17353 12.1328 1.1359C12.0475 1.02253 11.9199 0.871535 11.75 0.72054C11.6647 0.644795 11.5795 0.569056 11.4948 0.531431C11.3243 0.379941 11.1114 0.26657 10.8563 0.190825C10.6863 0.115575 10.4735 0.0774514 10.2601 0.0398265C10.0901 0.00220164 9.91961 0.0022072 9.70677 0.0022072C9.23817 0.0022072 8.85538 0.0779464 8.51437 0.191316C8.17393 0.304686 7.87583 0.494303 7.62008 0.721537C7.40723 0.910652 7.27963 1.09927 7.15204 1.25076C7.06679 1.43988 6.98154 1.66711 6.93919 1.89385C6.89684 2.12059 6.85394 2.34782 6.85394 2.61268C6.81159 2.87754 6.81159 3.17953 6.81159 3.52063C6.81159 3.82311 6.81159 4.1256 6.85394 4.39046C6.85394 4.50432 6.85394 4.61719 6.89628 4.69294C6.89628 4.84443 6.89628 4.99543 6.93863 5.1088C6.98098 5.33603 7.06623 5.56277 7.15148 5.75188C7.27908 5.941 7.40667 6.09199 7.61952 6.2816C7.87472 6.50834 8.17281 6.69745 8.51382 6.81082C8.81191 6.96231 9.15236 6.99994 9.57805 6.99994H9.70565C10.1313 6.99994 10.5141 6.96231 10.8551 6.81082C11.1956 6.69745 11.4937 6.50834 11.7494 6.2816C11.9623 6.09248 12.0899 5.941 12.2175 5.75188C12.3027 5.56277 12.3874 5.33603 12.4303 5.1088C12.4727 4.91968 12.5156 4.65482 12.5156 4.39046V4.20134C12.5579 4.01223 12.5579 3.74737 12.5579 3.52063C12.559 3.17854 12.559 2.87605 12.5161 2.61119ZM10.9409 4.84295C10.9409 4.99394 10.8986 5.10731 10.8557 5.18305C10.771 5.29642 10.7281 5.37217 10.6429 5.41029C10.5576 5.52366 10.43 5.63703 10.2595 5.71278C10.1743 5.7504 10.0467 5.78852 9.91906 5.7504C9.87671 5.78852 9.79146 5.78852 9.70621 5.78852C9.49336 5.78852 9.28051 5.78852 9.11001 5.71278C8.98242 5.63703 8.81191 5.52366 8.68432 5.41029C8.64197 5.37266 8.55672 5.29692 8.51437 5.18305C8.47203 5.10731 8.42912 4.99394 8.42912 4.84295C8.38678 4.72958 8.34387 4.54046 8.34387 4.31322V2.68694C8.34387 2.4597 8.38622 2.30821 8.42912 2.15672C8.42912 2.00573 8.47147 1.89186 8.51437 1.81661C8.55672 1.70324 8.64197 1.6275 8.68432 1.55175C8.81191 1.43838 8.98242 1.36264 9.11001 1.2869C9.27996 1.24878 9.4928 1.21115 9.70621 1.21115C9.87615 1.21115 10.089 1.24878 10.2595 1.2869C10.43 1.36264 10.5576 1.43838 10.6429 1.55175C10.7281 1.6275 10.7704 1.70324 10.8557 1.81661C10.898 1.89236 10.9409 2.00573 10.9409 2.15672C10.9833 2.30821 10.9833 2.4597 11.0262 2.68694V4.31322C10.9839 4.50234 10.9839 4.65334 10.9409 4.7672C10.9409 4.80532 10.9409 4.84295 10.9409 4.84295Z" fill="#CECECF"/>
<path d="M19.7537 1.36231C19.6261 1.09745 19.4985 0.870712 19.2428 0.681598C19.0299 0.492483 18.7742 0.340994 18.4766 0.227129C18.1362 0.11376 17.7952 0.0380128 17.3695 0.0380128H14.3891V6.96H15.879V4.35002H17.3695C17.7952 4.35002 18.1356 4.31239 18.4766 4.19853C18.7742 4.08516 19.0299 3.93367 19.2428 3.70693C19.4985 3.51782 19.6256 3.29108 19.7537 3.02573C19.8813 2.76087 19.9237 2.4965 19.9237 2.19352C19.9242 1.93015 19.8819 1.62767 19.7537 1.36231ZM18.1362 2.87572C18.0086 2.98909 17.881 3.06484 17.7105 3.06484C17.5829 3.14058 17.4548 3.14058 17.2848 3.14058H15.8796V1.24943H17.2848C17.6682 1.24943 17.9234 1.3628 18.1362 1.51429C18.3061 1.70341 18.4343 1.93015 18.4343 2.19501C18.4343 2.49749 18.3061 2.72423 18.1362 2.87572Z" fill="#CECECF"/>
<path d="M26.608 1.24894V0.0385033H21.4991V6.9605H26.608V5.75006H22.9896V4.08566H26.0547V2.87523H22.9896V1.24844H26.608V1.24894Z" fill="#CECECF"/>
<path d="M31.8447 5.52392C31.6318 5.71304 31.3337 5.78829 30.9509 5.78829C30.7381 5.78829 30.5676 5.78829 30.3976 5.71255C30.2271 5.6368 30.0995 5.56106 29.9719 5.44769C29.9296 5.37194 29.8443 5.2962 29.8014 5.22045C29.7591 5.10708 29.7162 4.99321 29.6738 4.84222C29.6738 4.72885 29.6315 4.53974 29.6315 4.3125C29.5891 4.08527 29.5891 3.8209 29.5891 3.51842C29.5891 3.17782 29.5891 2.91296 29.6315 2.68622C29.6315 2.45898 29.6738 2.30749 29.6738 2.156C29.7162 2.00501 29.7591 1.89115 29.8014 1.8159C29.8438 1.70253 29.929 1.62678 29.9719 1.55103C30.0995 1.43766 30.2271 1.36192 30.3976 1.28617C30.5676 1.24805 30.7381 1.21043 30.9509 1.21043C31.3337 1.21043 31.6318 1.28618 31.8023 1.47529C32.0152 1.6644 32.1857 1.89115 32.228 2.19363H33.8032C33.6332 1.43717 33.3352 0.907449 32.8242 0.529715C32.3133 0.189111 31.6747 0 30.9509 0C30.4823 0 30.0995 0.0757392 29.7585 0.189109C29.4604 0.302479 29.12 0.492088 28.8648 0.719322C28.6943 0.908437 28.5243 1.09706 28.4391 1.24855C28.3115 1.43766 28.2262 1.6649 28.1839 1.89164C28.1416 2.11838 28.0986 2.34561 28.0986 2.61047V4.38825C28.0986 4.65311 28.141 4.91747 28.1839 5.10658C28.2262 5.33382 28.3115 5.56056 28.4391 5.74968C28.5243 5.93879 28.6948 6.08978 28.8648 6.27939C29.12 6.50613 29.4604 6.69525 29.7585 6.80862C30.099 6.9601 30.4823 6.99773 30.9509 6.99773C31.6747 6.99773 32.3133 6.80862 32.8242 6.46851C33.3352 6.08978 33.6332 5.56007 33.8032 4.84173H32.2709C32.1851 5.10758 32.0152 5.33481 31.8447 5.52392Z" fill="#CECECF"/>
<path d="M40.7423 1.89213C40.7 1.66539 40.6147 1.43816 40.4871 1.24904C40.4019 1.09755 40.232 0.908935 40.0615 0.71982C39.8057 0.492586 39.5082 0.303472 39.1677 0.189607C38.8273 0.0762372 38.4439 0.000490488 37.9753 0.000490488C37.5073 0.000490488 37.1239 0.0762372 36.7835 0.189607C36.443 0.302977 36.1449 0.492586 35.8892 0.71982C35.7187 0.908935 35.5487 1.09755 35.4635 1.24904C35.3359 1.43816 35.2506 1.66539 35.2083 1.89213C35.166 2.11887 35.1231 2.3461 35.1231 2.61096V4.38874C35.1231 4.6536 35.1654 4.91797 35.2083 5.10708C35.2506 5.33431 35.3359 5.56105 35.4635 5.75017C35.5487 5.93928 35.7187 6.09028 35.8892 6.27989C36.1444 6.50663 36.4425 6.69574 36.7835 6.80911C37.1239 6.9606 37.5073 6.99822 37.9753 6.99822C38.4439 6.99822 38.8267 6.9606 39.1677 6.80911C39.5082 6.69574 39.8063 6.50663 40.0615 6.27989C40.232 6.09077 40.4019 5.93928 40.4871 5.75017C40.6147 5.56105 40.7 5.33431 40.7423 5.10708C40.7847 4.91797 40.8276 4.6531 40.8276 4.38874V2.61096C40.8276 2.3461 40.7847 2.11887 40.7423 1.89213ZM39.2948 4.31349C39.2948 4.54073 39.2524 4.72934 39.2524 4.84321C39.2101 4.9942 39.1677 5.10758 39.1248 5.18332C39.0825 5.29669 39.0396 5.37244 38.9549 5.41056C38.8273 5.52393 38.6997 5.63729 38.5292 5.71304C38.3592 5.78878 38.1887 5.78878 37.9759 5.78878C37.763 5.78878 37.5931 5.78878 37.4226 5.71304C37.2526 5.63729 37.1245 5.52393 36.9969 5.41056C36.9116 5.37293 36.8693 5.29719 36.8269 5.18332C36.7846 5.10758 36.7417 4.9942 36.6994 4.84321C36.657 4.72984 36.657 4.54073 36.657 4.31349C36.6147 4.08626 36.6147 3.82189 36.6147 3.51941C36.6147 3.1788 36.6147 2.91395 36.657 2.68721C36.657 2.45997 36.657 2.30848 36.6994 2.15699C36.7417 2.006 36.7846 1.89213 36.8269 1.81688C36.8693 1.70351 36.9122 1.62777 36.9969 1.55202C37.1245 1.43865 37.2521 1.36291 37.4226 1.28716C37.5931 1.24904 37.763 1.21142 37.9759 1.21142C38.1887 1.21142 38.3592 1.24904 38.5292 1.28716C38.6997 1.36291 38.8273 1.43865 38.9549 1.55202C39.0401 1.62777 39.0825 1.70351 39.1248 1.81688C39.1672 1.89263 39.2101 2.006 39.2524 2.15699C39.2524 2.30848 39.2948 2.45997 39.2948 2.68721C39.3371 2.91395 39.3371 3.17831 39.3371 3.51941C39.3371 3.8214 39.3371 4.08626 39.2948 4.31349Z" fill="#CECECF"/>
<path d="M47.0854 0.0385033V4.27477L44.0203 0.0385033H42.658V6.9605H44.1908V2.72423L47.2559 6.9605H48.6183V0.0385033H47.0854Z" fill="#CECECF"/>
<path d="M59.0062 4.31339C58.9216 4.12427 58.7934 3.93466 58.6235 3.78367C58.5382 3.70792 58.4529 3.63267 58.3683 3.59455C58.283 3.55643 58.1978 3.48069 58.0278 3.40544C58.6664 3.10246 59.0068 2.61135 59.0068 1.96777C59.0068 1.66529 58.9221 1.40043 58.8369 1.17319C58.7093 0.946455 58.5388 0.757835 58.3259 0.568226C58.1554 0.416736 57.9002 0.265247 57.6021 0.189502C57.304 0.114252 56.9636 0.0385033 56.5802 0.0385033H53.4728V6.9605H56.7084C57.0912 6.9605 57.4322 6.88475 57.7303 6.80901C57.9855 6.69564 58.2412 6.58227 58.4541 6.39365C58.6669 6.24216 58.8374 6.01493 58.9227 5.78819C59.0503 5.56095 59.0926 5.25847 59.0926 4.95549C59.0915 4.72924 59.0486 4.5025 59.0062 4.31339ZM55.0045 1.24894H56.4944C56.7925 1.24894 57.0477 1.32468 57.2182 1.47617C57.3887 1.62766 57.4734 1.81628 57.4734 2.04302C57.4734 2.30788 57.3882 2.49749 57.2182 2.64898C57.0483 2.76235 56.7925 2.83809 56.4944 2.83809H55.0045V1.24894ZM57.3035 5.52382C57.133 5.67481 56.8778 5.75056 56.5797 5.75056H55.0045V4.04803H56.5797C56.8778 4.04803 57.133 4.12377 57.3035 4.27526C57.4734 4.42675 57.6016 4.61537 57.6016 4.88023C57.6016 5.14509 57.4734 5.37233 57.3035 5.52382Z" fill="#CECECF"/>
<path d="M64.0721 0.0385033H62.8802L60.0703 6.9605H61.6455L62.1141 5.71244H64.8811L65.3492 6.9605H66.9243L64.0721 0.0385033ZM62.5398 4.57825L63.5188 2.08114L64.4554 4.57825H62.5398Z" fill="#CECECF"/>
<path d="M72.5442 0.0385033V4.27477L69.4791 0.0385033H68.1591V6.9605H69.649V2.72423L72.7141 6.9605H74.0765V0.0385033H72.5442Z" fill="#CECECF"/>
<path d="M79.6962 2.79997L82.2509 0.0389938H80.42L77.6524 3.06483V0.0389938H76.1625V6.96098H77.6524V4.88022L78.6743 3.82128L80.6752 6.96049H82.4203L79.6962 2.79997Z" fill="#CECECF"/>
</svg>
