<svg width="22" height="14" viewBox="0 0 22 14" fill="none" xmlns="http://www.w3.org/2000/svg">
<path d="M21.387 2.77419L11.7153 13.6452C11.6002 13.7742 11.4755 13.8654 11.3411 13.9187C11.2068 13.9729 11.0629 14 10.9094 14C10.7558 14 10.6119 13.9729 10.4776 13.9187C10.3433 13.8654 10.2185 13.7742 10.1034 13.6452L0.402984 2.77419C0.134328 2.47311 0 2.09677 0 1.64516C0 1.19354 0.143923 0.806445 0.431769 0.483864C0.719615 0.161283 1.05544 -7.80786e-06 1.43923 -7.80786e-06C1.82302 -7.80786e-06 2.15884 0.161283 2.44669 0.483864L10.9094 9.96774L19.372 0.483864C19.6407 0.182789 19.9715 0.0322514 20.3645 0.0322514C20.7583 0.0322514 21.0991 0.193541 21.387 0.516122C21.6748 0.838703 21.8187 1.21505 21.8187 1.64516C21.8187 2.07526 21.6748 2.45161 21.387 2.77419Z" fill="black"/>
</svg>
