<svg width="41" height="31" viewBox="0 0 41 31" fill="none" xmlns="http://www.w3.org/2000/svg">
<path d="M38.8217 0.0380946H38.5787H36.527H4.47276H2.42106H2.17806C0.980772 0.0380946 0.000976784 0.908636 0.000976784 1.97193V5.6789V6.96845V11.5894V12.8789V17.4998V18.7894V23.4088V24.6983V28.4053C0.000976784 29.4691 0.980772 30.3396 2.17806 30.3396H2.42273H3.99562H4.47442H6.04732H36.4038H36.5253H38.4555H38.577H38.8217C40.019 30.3396 40.9988 29.4691 40.9988 28.4053V25.4511V24.6983V24.1615V23.4088V19.5421V18.7894V18.2525V17.4998V13.6316V12.8789V12.3421V11.5894V7.72118V6.96845V6.43164V5.6789V1.97193C40.9988 0.908636 40.019 0.0380946 38.8217 0.0380946Z" fill="#ECEDF7"/>
<path d="M41 12.1531V28.5806C41 29.6444 40.0186 30.5164 38.8213 30.5164H13.4375L0 18.5772V2.14677C0 1.08545 0.981463 0.213916 2.17875 0.213916H27.5625L41 12.1531Z" fill="#B7C3A1"/>
<path opacity="0.2" d="M38.7578 0H38.5147H37.4878L3.38352 30.3015H3.93167H4.41047H5.98337H36.3399H36.4614H38.3916H38.5131H38.7578C39.955 30.3015 40.9348 29.4315 40.9348 28.3672V25.413V24.6602V24.1234V23.3707V19.504V18.7513V18.2144V17.4617V13.5935V12.8408V12.304V11.5513V7.68309V6.93036V6.39354V5.64081V1.93334C40.9348 0.870053 39.955 0 38.7578 0Z" fill="#040000"/>
</svg>
