<svg width="31" height="36" viewBox="0 0 31 36" fill="none" xmlns="http://www.w3.org/2000/svg">
<path d="M15.5 17.8186C14.0791 17.8186 12.8628 17.237 11.851 16.0738C10.8392 14.9106 10.3333 13.5124 10.3333 11.879C10.3333 10.2456 10.8392 8.84734 11.851 7.68418C12.8628 6.52102 14.0791 5.93943 15.5 5.93943C16.9208 5.93943 18.1371 6.52102 19.1489 7.68418C20.1607 8.84734 20.6666 10.2456 20.6666 11.879C20.6666 13.5124 20.1607 14.9106 19.1489 16.0738C18.1371 17.237 16.9208 17.8186 15.5 17.8186ZM5.16663 29.6977V25.54C5.16663 24.6986 5.35521 23.9249 5.73238 23.2191C6.10954 22.5133 6.60985 21.9753 7.23329 21.605C8.56801 20.8378 9.92426 20.2622 11.302 19.8781C12.6798 19.494 14.0791 19.3025 15.5 19.3035C16.9208 19.3035 18.3201 19.4955 19.6979 19.8796C21.0756 20.2637 22.4319 20.8388 23.7666 21.605C24.3909 21.9763 24.8917 22.5148 25.2688 23.2206C25.646 23.9264 25.8341 24.6995 25.8333 25.54V29.6977H5.16663Z" fill="black"/>
</svg>
