<svg width="24" height="23" viewBox="0 0 24 23" fill="none" xmlns="http://www.w3.org/2000/svg">
<g clip-path="url(#clip0_11_32)">
<path d="M15.06 5.06291L20.717 10.4842C20.9979 10.7537 21.1557 11.1191 21.1557 11.5C21.1557 11.881 20.9979 12.2463 20.717 12.5159L15.061 17.9381C14.7796 18.2078 14.398 18.3593 14 18.3593C13.602 18.3593 13.2204 18.2078 12.939 17.9381C12.6576 17.6685 12.4995 17.3027 12.4995 16.9213C12.4995 16.54 12.6576 16.1742 12.939 15.9045L16.035 12.9375H4.5C4.10218 12.9375 3.72064 12.7861 3.43934 12.5165C3.15804 12.2469 3 11.8813 3 11.5C3 11.1188 3.15804 10.7532 3.43934 10.4836C3.72064 10.214 4.10218 10.0625 4.5 10.0625H16.035L12.94 7.09554C12.6587 6.82587 12.5008 6.46017 12.5009 6.07888C12.501 5.6976 12.6591 5.33197 12.9405 5.06243C13.2219 4.79289 13.6035 4.64151 14.0014 4.6416C14.3992 4.64169 14.7807 4.79324 15.062 5.06291H15.06Z" fill="black"/>
</g>
<defs>
<clipPath id="clip0_11_32">
<rect width="24" height="23" fill="white"/>
</clipPath>
</defs>
</svg>
