<svg width="23" height="27" viewBox="0 0 23 27" fill="none" xmlns="http://www.w3.org/2000/svg">
<path fill-rule="evenodd" clip-rule="evenodd" d="M4.12562 13.0783L6.9575 16.4027C7.06343 16.5185 7.14838 16.6583 7.20731 16.8135C7.26624 16.9688 7.29792 17.1364 7.30048 17.3063C7.30303 17.4762 7.2764 17.645 7.22218 17.8026C7.16795 17.9602 7.08724 18.1034 6.98487 18.2235C6.88249 18.3437 6.76054 18.4385 6.6263 18.5021C6.49205 18.5658 6.34826 18.597 6.2035 18.594C6.05874 18.591 5.91598 18.5538 5.78373 18.4847C5.65148 18.4155 5.53245 18.3158 5.43375 18.1914L0.761875 12.707L0 11.8127L0.761875 10.9183L5.43375 5.43392C5.63813 5.21036 5.90844 5.08865 6.18775 5.09444C6.46706 5.10022 6.73355 5.23305 6.93108 5.46493C7.12861 5.69682 7.24176 6.00965 7.24669 6.33754C7.25162 6.66542 7.14794 6.98275 6.9575 7.22267L4.12562 10.547H18.3281C19.5672 10.547 20.7555 11.1249 21.6316 12.1534C22.5078 13.1819 23 14.5769 23 16.0314C23 17.486 22.5078 18.8809 21.6316 19.9095C20.7555 20.938 19.5672 21.5158 18.3281 21.5158H15.4531C15.1672 21.5158 14.893 21.3825 14.6908 21.1451C14.4886 20.9077 14.375 20.5858 14.375 20.2502C14.375 19.9145 14.4886 19.5926 14.6908 19.3552C14.893 19.1179 15.1672 18.9845 15.4531 18.9845H18.3281C18.9953 18.9845 19.6352 18.6734 20.1069 18.1196C20.5787 17.5658 20.8438 16.8146 20.8438 16.0314C20.8438 15.2482 20.5787 14.4971 20.1069 13.9432C19.6352 13.3894 18.9953 13.0783 18.3281 13.0783H4.12562Z" fill="black"/>
</svg>
