<svg width="46" height="46" viewBox="0 0 46 46" fill="none" xmlns="http://www.w3.org/2000/svg">
<g clip-path="url(#clip0_43_621)">
<path d="M16.8916 22.2565C17.7675 21.5282 18.6511 21.5282 19.5481 22.2776L19.7551 22.4654L29.3116 32.0219L29.4917 32.181C29.8605 32.4669 30.3209 32.6084 30.7866 32.579C31.2523 32.5496 31.6913 32.3514 32.0212 32.0214C32.3512 31.6915 32.5494 31.2525 32.5788 30.7868C32.6082 30.3211 32.4667 29.8607 32.1808 29.4919L32.0217 29.3117L29.5454 26.8335L30.1051 26.2719L30.3082 26.0898C31.1841 25.3615 32.0677 25.3615 32.9647 26.1109L33.1717 26.2987L42.1302 35.2592C41.9488 37.0844 41.119 38.784 39.7914 40.0497C38.4639 41.3153 36.7266 42.0631 34.8948 42.1572L34.5 42.1668H11.5C9.59847 42.1667 7.76486 41.46 6.35518 40.1838C4.94551 38.9077 4.06037 37.1532 3.87165 35.2611L16.6884 22.4386L16.8916 22.2565ZM34.5 3.8335C36.4669 3.83349 38.3587 4.5895 39.7839 5.94513C41.2091 7.30077 42.0587 9.15233 42.1571 11.1168L42.1666 11.5002V29.8714L35.8551 23.5617L35.5676 23.2992C33.1602 21.2004 30.1051 21.1966 27.7169 23.2666L27.4217 23.5349L26.8333 24.1214L22.4384 19.7284L22.1509 19.4658C19.7436 17.3671 16.6884 17.3632 14.3002 19.4332L14.0051 19.7016L3.83331 29.8714V11.5002C3.83331 9.5332 4.58931 7.64148 5.94495 6.21627C7.30059 4.79107 9.15214 3.94143 11.1166 3.84308L11.5 3.8335H34.5ZM28.7691 13.4168L28.5257 13.4302C28.0599 13.4857 27.6305 13.71 27.319 14.0608C27.0075 14.4115 26.8354 14.8644 26.8354 15.3335C26.8354 15.8026 27.0075 16.2555 27.319 16.6062C27.6305 16.957 28.0599 17.1813 28.5257 17.2367L28.75 17.2502L28.9934 17.2367C29.4592 17.1813 29.8886 16.957 30.2001 16.6062C30.5116 16.2555 30.6837 15.8026 30.6837 15.3335C30.6837 14.8644 30.5116 14.4115 30.2001 14.0608C29.8886 13.71 29.4592 13.4857 28.9934 13.4302L28.7691 13.4168Z" fill="black"/>
</g>
<defs>
<clipPath id="clip0_43_621">
<rect width="46" height="46" fill="white"/>
</clipPath>
</defs>
</svg>
