<svg width="27" height="24" viewBox="0 0 27 24" fill="none" xmlns="http://www.w3.org/2000/svg">
<path d="M24.3 7.08531H2.7V4.72354H24.3V7.08531ZM21.6 0H5.4V2.36177H21.6V0ZM27 11.8088V21.2559C27 21.8823 26.7155 22.483 26.2092 22.9259C25.7029 23.3689 25.0161 23.6177 24.3 23.6177H2.7C1.98457 23.6158 1.29906 23.3664 0.793172 22.9239C0.287286 22.4814 0.00213668 21.8817 0 21.2559V11.8088C0.00213668 11.183 0.287286 10.5834 0.793172 10.1409C1.29906 9.69837 1.98457 9.44894 2.7 9.44707H24.3C25.0154 9.44894 25.701 9.69837 26.2068 10.1409C26.7127 10.5834 26.9979 11.183 27 11.8088ZM16.1015 17.7629L19.2375 15.4176L15.1079 15.1153L13.5 11.8088L11.8922 15.1153L7.7625 15.4176L10.8986 17.7629L9.95355 21.2559L13.5 19.3996L17.0465 21.2559L16.1015 17.7629Z" fill="black"/>
</svg>
