<svg width="34" height="34" viewBox="0 0 34 34" fill="none" xmlns="http://www.w3.org/2000/svg">
<path d="M27.6298 0L21.312 5.58706L23.4082 7.44089L26.1477 5.01812V28.9819L23.4082 26.5591L21.312 28.4129L27.6298 34L33.9476 28.4129L31.8514 26.5591L29.1119 28.9819V5.01812L31.8514 7.44096L33.9477 5.58706L27.6298 0ZM7.66725 0.0187873C5.74331 0.239794 3.9988 2.2357 3.9988 4.82012C3.9988 6.24432 4.55631 7.50395 5.37345 8.37479L6.34834 9.41342L4.84837 9.66275C3.7862 9.83934 3.00743 10.3356 2.34172 11.1436C1.67601 11.9517 1.16707 13.0775 0.810381 14.375C0.164596 16.7256 0.0225609 19.5956 0 22.1255H3.52971L4.49892 33.619C6.96037 34.1104 9.58838 34.0931 11.959 33.6209L12.8165 22.1255H16.1772C16.175 19.5646 16.138 16.655 15.5528 14.2866C15.2302 12.9807 14.7411 11.8565 14.0674 11.0576C13.3934 10.2588 12.5787 9.76543 11.3862 9.60202L9.85533 9.3923L10.8217 8.32156C11.6035 7.45523 12.1335 6.21002 12.1335 4.82027C12.1335 2.06494 10.1858 0.0255595 8.06602 0.0255595L7.66725 0.0187873Z" fill="black"/>
</svg>
