<svg width="35" height="35" viewBox="0 0 35 35" fill="none" xmlns="http://www.w3.org/2000/svg">
<g clip-path="url(#clip0_72_184)">
<path d="M31.7188 13.7813V10.9375C31.7188 10.2812 31.2813 9.84375 30.625 9.84375H23.7344C23.4063 10.5 22.6406 10.9375 21.875 10.9375C21.1094 10.9375 20.3437 10.5 20.0156 9.84375H4.375C3.71875 9.84375 3.28125 10.2812 3.28125 10.9375V13.7813C4.59375 14.5469 5.46875 15.9688 5.46875 17.5C5.46875 19.0312 4.59375 20.5625 3.28125 21.2187V24.0625C3.28125 24.7188 3.71875 25.1562 4.375 25.1562H20.0156C20.3437 24.5 21.1094 24.0625 21.875 24.0625C22.6406 24.0625 23.4063 24.5 23.7344 25.1562H30.625C31.2813 25.1562 31.7188 24.7188 31.7188 24.0625V21.2187C30.4062 20.4531 29.5312 19.0312 29.5312 17.5C29.5312 15.9688 30.4062 14.4375 31.7188 13.7813Z" stroke="black" stroke-width="2" stroke-miterlimit="10" stroke-linecap="round" stroke-linejoin="round"/>
<path d="M21.875 13.125V16.4062" stroke="black" stroke-width="2" stroke-miterlimit="10" stroke-linecap="round" stroke-linejoin="round"/>
<path d="M21.875 21.875V18.5938" stroke="black" stroke-width="2" stroke-miterlimit="10" stroke-linecap="round" stroke-linejoin="round"/>
<path d="M10.9375 20.7812L15.3125 14.2188" stroke="black" stroke-width="2" stroke-miterlimit="10" stroke-linecap="round" stroke-linejoin="round"/>
<path d="M9.84375 13.125V16.4062" stroke="black" stroke-width="2" stroke-miterlimit="10" stroke-linecap="round" stroke-linejoin="round"/>
<path d="M16.4062 18.5938V21.875" stroke="black" stroke-width="2" stroke-miterlimit="10" stroke-linecap="round" stroke-linejoin="round"/>
</g>
<defs>
<clipPath id="clip0_72_184">
<rect width="35" height="35" fill="white"/>
</clipPath>
</defs>
</svg>
