<svg width="28" height="29" viewBox="0 0 28 29" fill="none" xmlns="http://www.w3.org/2000/svg">
<path d="M3.49849 29.0002C2.53641 29.0002 1.71251 28.7296 1.02681 28.1882C0.341105 27.6469 -0.00116319 26.9969 2.96986e-06 26.2383V12.4287C2.96986e-06 11.6691 0.342855 11.0187 1.02856 10.4774C1.71426 9.93603 2.53757 9.66582 3.49849 9.66674H5.24774V6.90482C5.24774 4.99448 6.10079 3.36587 7.80688 2.01897C9.51298 0.67207 11.5753 -0.000919699 13.994 9.43281e-07C16.4138 9.43281e-07 18.4767 0.673451 20.1828 2.02035C21.8889 3.36725 22.7414 4.9954 22.7402 6.90482V9.66674H24.4894C25.4515 9.66674 26.2754 9.93741 26.9611 10.4787C27.6468 11.0201 27.9891 11.6701 27.9879 12.4287V26.2383C27.9879 26.9978 27.6451 27.6483 26.9594 28.1896C26.2737 28.7309 25.4503 29.0011 24.4894 29.0002H3.49849ZM13.994 22.0954C14.956 22.0954 15.7799 21.8247 16.4656 21.2834C17.1514 20.7421 17.4936 20.0921 17.4925 19.3335C17.4925 18.574 17.1496 17.9235 16.4639 17.3822C15.7782 16.8408 14.9549 16.5706 13.994 16.5716C13.0319 16.5716 12.208 16.8422 11.5223 17.3836C10.8366 17.9249 10.4943 18.5749 10.4955 19.3335C10.4955 20.093 10.8383 20.7434 11.524 21.2848C12.2097 21.8261 13.033 22.0963 13.994 22.0954ZM8.74623 9.66674H19.2417V6.90482C19.2417 5.75401 18.7315 4.77583 17.7111 3.97027C16.6907 3.16471 15.4517 2.76193 13.994 2.76193C12.5363 2.76193 11.2972 3.16471 10.2768 3.97027C9.25642 4.77583 8.74623 5.75401 8.74623 6.90482V9.66674Z" fill="black"/>
</svg>
