<svg width="17" height="17" viewBox="0 0 17 17" fill="none" xmlns="http://www.w3.org/2000/svg">
<path d="M5.84375 7.4375C7.89437 7.4375 9.5625 9.10563 9.5625 11.1562C9.5625 13.2069 7.89437 14.875 5.84375 14.875C3.79313 14.875 2.125 13.2069 2.125 11.1562C2.125 9.10563 3.79313 7.4375 5.84375 7.4375ZM5.84375 5.3125C2.61375 5.3125 0 7.92625 0 11.1562C0 14.3862 2.61375 17 5.84375 17C9.07375 17 11.6875 14.3862 11.6875 11.1562C11.6875 9.92375 11.305 8.78687 10.6569 7.84125L14.875 3.63375V6.375H17V0H10.625V2.125H13.3663L9.14812 6.34313C8.21312 5.695 7.07625 5.3125 5.84375 5.3125Z" fill="black"/>
</svg>
