<svg width="42" height="31" viewBox="0 0 42 31" fill="none" xmlns="http://www.w3.org/2000/svg">
<path d="M41.93 1.97831V29.0127C41.93 30.1007 40.9279 30.991 39.7034 30.991H2.22658C1.00208 30.991 0 30.1007 0 29.0127V1.97831C0 0.890339 1.00151 0 2.22658 0H39.7034C40.9279 0 41.93 0.890339 41.93 1.97831Z" fill="#F7D072"/>
<path opacity="0.2" d="M33.709 6.53688L40.2123 0.758735H38.0878L30.9774 7.07633L30.1104 7.84667L27.4219 10.2742L26.5549 11.0445H16.8434L12.3777 7.07683L10.9467 5.76703L5.31045 0.759743H3.2297L8.82225 5.76703L9.68928 6.53788H0.757986V7.84769H11.2066L13.9813 10.3518L14.7184 11.0455V12.5862H0.75912V13.8966H14.7195V18.6346H0.75912V19.9444H14.7195V21.4851H14.7626L12.0747 23.9121L11.2077 24.683H0.75912V25.9923H9.73354L4.09729 31.0001H6.17861L11.8149 25.9923L16.8871 21.4856H26.5555L37.2208 31.0001H39.3453L33.709 25.9923H41.9469V24.683H32.2348L28.6362 21.4856H28.723V19.9449H41.9463V18.6351H28.723V13.8971H41.9463V12.5868H28.723V11.0461H28.6362L32.2348 7.8487H41.9463V6.5389H33.709V6.53688ZM27.2057 20.1733H16.1937V12.3533H27.2057V20.1733Z" fill="white"/>
<path d="M16.1069 10.2736L16.9739 11.044H17.0171L17.6242 11.5829H24.3442L25.8184 10.2736H16.1069ZM16.1069 10.2736L16.9739 11.044H17.0171L17.6242 11.5829H24.3442L25.8184 10.2736H16.1069ZM16.1069 10.2736L16.9739 11.044H17.0171L17.6242 11.5829H24.3442L25.8184 10.2736H16.1069ZM16.1069 10.2736L16.9739 11.044H17.0171L17.6242 11.5829H24.3442L25.8184 10.2736H16.1069ZM16.1069 10.2736L16.9739 11.044H17.0171L17.6242 11.5829H24.3442L25.8184 10.2736H16.1069ZM16.1069 10.2736L16.9739 11.044H17.0171L17.6242 11.5829H24.3442L25.8184 10.2736H16.1069ZM13.9825 10.2736V20.7127H27.986V10.2736H13.9825ZM26.4687 19.4024H15.4566V11.5824H26.4687V19.4024ZM16.1069 10.2736L16.9739 11.044H17.0171L17.6242 11.5829H24.3442L25.8184 10.2736H16.1069ZM25.1681 20.1733L24.3011 19.4024H17.6242L16.7572 20.1733H16.7141L16.1506 20.7127H25.8184L25.1681 20.1733ZM16.1069 10.2736L16.9739 11.044H17.0171L17.6242 11.5829H24.3442L25.8184 10.2736H16.1069ZM16.1069 10.2736L16.9739 11.044H17.0171L17.6242 11.5829H24.3442L25.8184 10.2736H16.1069ZM16.1069 10.2736L16.9739 11.044H17.0171L17.6242 11.5829H24.3442L25.8184 10.2736H16.1069ZM16.1069 10.2736L16.9739 11.044H17.0171L17.6242 11.5829H24.3442L25.8184 10.2736H16.1069Z" fill="#717070"/>
<path d="M11.0671 5.76968L12.5515 7.08856H0V5.76968H11.0671Z" fill="#717070"/>
<path d="M41.9298 5.76968V7.08856H29.3789L30.8627 5.76968H41.9298Z" fill="#717070"/>
<path d="M15.4453 11.8146H0V13.1335H15.4453V11.8146Z" fill="#717070"/>
<path d="M41.93 11.8146H26.4846V13.1335H41.93V11.8146Z" fill="#717070"/>
<path d="M15.4453 17.8595H0V19.1784H15.4453V17.8595Z" fill="#717070"/>
<path d="M41.93 17.8595H26.4846V19.1784H41.93V17.8595Z" fill="#717070"/>
<path d="M12.5532 23.9022L11.0688 25.221H0V23.9022H12.5532Z" fill="#717070"/>
<path d="M41.9301 23.9022V25.221H30.8613L29.3769 23.9022H41.9301Z" fill="#717070"/>
<path d="M17.6087 19.4107L4.57491 30.9907H2.47657L15.5104 19.4107H17.6087Z" fill="#717070"/>
<path d="M39.4549 0L26.4216 11.5805H24.3233L37.3565 0H39.4549Z" fill="#717070"/>
<path d="M17.6066 11.5805H15.5089L2.47507 0H4.57341L17.6066 11.5805Z" fill="#717070"/>
<path d="M39.4532 30.9904H37.3549L25.8055 20.7288L25.1876 20.1798L24.3211 19.4104H26.4195L27.2269 20.1273L27.9038 20.7288L28.7107 21.4462L31.4752 23.902L32.3417 24.6718L32.9596 25.2208L33.8261 25.9907L39.4532 30.9904Z" fill="#717070"/>
</svg>
