<svg width="50" height="50" viewBox="0 0 50 50" fill="none" xmlns="http://www.w3.org/2000/svg">
<g clip-path="url(#clip0_72_66)">
<path d="M49.8715 24.2329L44.6776 8.04214C44.4583 7.3588 43.9861 6.80176 43.3477 6.47358C42.7095 6.1456 41.9817 6.08573 41.2983 6.30458L14.8948 14.7747C13.484 15.2274 12.7046 16.7432 13.157 18.154L14.2137 21.4481H2.68674C1.20523 21.4481 0 22.6533 0 24.1348V41.1382C0 42.6197 1.20523 43.825 2.68674 43.825H32.2546C33.7361 43.825 34.9413 42.6197 34.9413 41.1382V31.8442L48.1335 27.6121C49.5443 27.1597 50.3239 25.6439 49.8715 24.2329ZM32.2548 41.373H2.68674C2.55739 41.373 2.45215 41.2678 2.45215 41.1384V24.135C2.45215 24.0056 2.55739 23.9004 2.68674 23.9004H32.2546C32.3839 23.9004 32.4892 24.0056 32.4892 24.135V41.1384C32.4894 41.2678 32.3841 41.373 32.2548 41.373ZM42.2263 8.65436C42.2657 8.67459 42.3178 8.71484 42.3423 8.79127L43.3788 12.022L16.5285 20.6358L15.4921 17.4049C15.4524 17.2816 15.5207 17.1492 15.6439 17.1098L42.0473 8.63964C42.073 8.63126 42.0973 8.628 42.1196 8.628C42.1635 8.628 42.2001 8.64087 42.2263 8.65436ZM32.2548 21.4481H22.0244L44.1279 14.3572L47.5364 24.982C47.5758 25.1054 47.5078 25.2379 47.3846 25.2773L34.9415 29.269V24.1348C34.9415 22.6533 33.7363 21.4481 32.2548 21.4481Z" fill="black"/>
<path d="M11.5537 27.5281H6.30896C5.63196 27.5281 5.08289 28.0772 5.08289 28.7542C5.08289 29.4312 5.63196 29.9802 6.30896 29.9802H11.5537C12.2307 29.9802 12.7798 29.4312 12.7798 28.7542C12.7798 28.0772 12.2309 27.5281 11.5537 27.5281Z" fill="black"/>
<path d="M17.4117 29.9802C18.0887 29.9802 18.6378 29.4312 18.6378 28.7542C18.6378 28.0772 18.0887 27.5281 17.4117 27.5281H15.5045C14.8275 27.5281 14.2784 28.0772 14.2784 28.7542C14.2784 29.4312 14.8275 29.9802 15.5045 29.9802H17.4117Z" fill="black"/>
<path d="M30.4898 32.8411C30.4898 32.1641 29.9407 31.615 29.2637 31.615H23.2697C22.5927 31.615 22.0436 32.1641 22.0436 32.8411V38.1541C22.0436 38.8311 22.5927 39.3801 23.2697 39.3801H29.2637C29.9407 39.3801 30.4898 38.8311 30.4898 38.1541V32.8411ZM28.0377 34.0671V36.928H24.4957V34.0671H28.0377Z" fill="black"/>
</g>
<defs>
<clipPath id="clip0_72_66">
<rect width="50" height="50" fill="white"/>
</clipPath>
</defs>
</svg>
