<svg width="31" height="35" viewBox="0 0 31 35" fill="none" xmlns="http://www.w3.org/2000/svg">
<path d="M14.8542 0.729004C15.5 1.09359 16.7917 3.49984 16.7917 5.104C16.7917 6.70817 15.9263 7.2915 14.8542 7.2915C13.7821 7.2915 12.9167 7.07275 12.9167 5.46859C12.9167 3.86442 14.2084 2.9165 14.8542 0.729004ZM23.8959 13.1248C27.125 13.1248 29.7084 16.0415 29.7084 19.6873C29.7084 21.9623 28.6879 23.9603 27.125 25.1415V33.5415H3.87502V25.1415C2.3121 23.9603 1.29169 21.9623 1.29169 19.6873C1.29169 16.0415 3.87502 13.1248 7.10419 13.1248H12.9167V8.74984H16.7917V13.1248H23.8959ZM15.5 23.3332C16.3564 23.3332 17.1778 22.9491 17.7834 22.2653C18.389 21.5816 18.7292 20.6543 18.7292 19.6873H20.6667C20.6667 20.6543 21.0069 21.5816 21.6125 22.2653C22.2181 22.9491 23.0394 23.3332 23.8959 23.3332C24.7523 23.3332 25.5736 22.9491 26.1792 22.2653C26.7848 21.5816 27.125 20.6543 27.125 19.6873C27.125 18.7204 26.7848 17.7931 26.1792 17.1093C25.5736 16.4256 24.7523 16.0415 23.8959 16.0415H7.10419C6.24776 16.0415 5.42641 16.4256 4.82082 17.1093C4.21523 17.7931 3.87502 18.7204 3.87502 19.6873C3.87502 20.6543 4.21523 21.5816 4.82082 22.2653C5.42641 22.9491 6.24776 23.3332 7.10419 23.3332C7.96062 23.3332 8.78197 22.9491 9.38755 22.2653C9.99314 21.5816 10.3334 20.6543 10.3334 19.6873H12.2709C12.2709 20.6543 12.6111 21.5816 13.2167 22.2653C13.8222 22.9491 14.6436 23.3332 15.5 23.3332Z" fill="black"/>
</svg>
