<svg width="24" height="24" viewBox="0 0 24 24" fill="none" xmlns="http://www.w3.org/2000/svg">
<path fill-rule="evenodd" clip-rule="evenodd" d="M10.4402 0.519531C11.0173 0.179677 11.679 0 12.3536 0C13.0282 0 13.6899 0.179677 14.2669 0.519531L15.6256 1.32773C17.532 2.46089 19.7031 2.71321 21.8843 2.96748C22.5893 3.04986 23.295 3.13158 23.9934 3.2438C23.9934 3.2438 24.0087 4.43339 23.9927 4.97306L23.8533 9.61145C23.7332 13.5895 21.9143 17.3613 18.794 20.1025C17.3219 21.3952 15.7991 22.5634 14.0495 23.5337C13.5339 23.8174 12.9558 23.9765 12.3638 23.9976C11.7718 24.0187 11.1833 23.9012 10.6477 23.655C8.62728 22.721 6.83834 21.5366 5.20481 20.1025C2.0845 17.3613 0.265547 13.5895 0.146151 9.61145L0.00741131 4.98798C-0.00926414 4.43988 0.00741131 3.2438 0.00741131 3.2438C0.574377 3.17893 1.15201 3.1251 1.73432 3.07126C4.30434 2.83386 6.95974 2.58868 9.13822 1.294L10.4409 0.519531H10.4402ZM10.6597 10.3788V5.83834H13.3278V10.3788H17.9969V12.9733H13.3278V17.5138H10.6597V12.9733H5.99056V10.3788H10.6597Z" fill="black"/>
</svg>
