<svg width="24" height="35" viewBox="0 0 24 35" fill="none" xmlns="http://www.w3.org/2000/svg">
<path d="M14.3999 32.6667H9.59996C9.2817 32.6667 8.97648 32.7896 8.75144 33.0084C8.5264 33.2272 8.39997 33.5239 8.39997 33.8333C8.39997 34.1428 8.5264 34.4395 8.75144 34.6583C8.97648 34.8771 9.2817 35 9.59996 35H14.3999C14.7182 35 15.0234 34.8771 15.2484 34.6583C15.4735 34.4395 15.5999 34.1428 15.5999 33.8333C15.5999 33.5239 15.4735 33.2272 15.2484 33.0084C15.0234 32.7896 14.7182 32.6667 14.3999 32.6667ZM15.5999 29.1667H8.39997C8.08171 29.1667 7.77649 29.2896 7.55145 29.5084C7.32641 29.7272 7.19998 30.0239 7.19998 30.3333C7.19998 30.6428 7.32641 30.9395 7.55145 31.1583C7.77649 31.3771 8.08171 31.5 8.39997 31.5H15.5999C15.9182 31.5 16.2234 31.3771 16.4484 31.1583C16.6735 30.9395 16.7999 30.6428 16.7999 30.3333C16.7999 30.0239 16.6735 29.7272 16.4484 29.5084C16.2234 29.2896 15.9182 29.1667 15.5999 29.1667ZM20.5064 3.40451C18.2511 1.20899 15.2302 3.30637e-05 11.9999 3.30637e-05C10.423 -0.00362111 8.86092 0.295652 7.40333 0.880662C5.94574 1.46567 4.62139 2.32489 3.50634 3.40897C2.3913 4.49305 1.50754 5.78062 0.905817 7.19773C0.304097 8.61485 -0.00372455 10.1336 3.40082e-05 11.6667C3.40082e-05 15.0661 1.34027 18.246 3.67501 20.3904L4.002 20.6887C5.35274 21.9166 7.19998 23.5988 7.19998 25.0833V26.8333C7.19998 27.1428 7.32641 27.4395 7.55145 27.6583C7.77649 27.8771 8.08171 28 8.39997 28H10.2C10.3591 28 10.5117 27.9385 10.6242 27.8292C10.7367 27.7198 10.8 27.5714 10.8 27.4167V18.8723C10.8 18.7543 10.7632 18.6391 10.6946 18.5419C10.6259 18.4447 10.5285 18.3699 10.4152 18.3276C9.72228 18.0528 9.064 17.7017 8.45322 17.2813C8.31596 17.1961 8.19798 17.0846 8.10647 16.9536C8.01495 16.8226 7.95181 16.6749 7.92089 16.5195C7.88998 16.364 7.89193 16.2041 7.92663 16.0494C7.96133 15.8947 8.02805 15.7485 8.12274 15.6197C8.21742 15.4908 8.33809 15.3821 8.47738 15.3001C8.61668 15.2181 8.77169 15.1645 8.93298 15.1425C9.09426 15.1206 9.25845 15.1309 9.41554 15.1726C9.57262 15.2144 9.71933 15.2868 9.84671 15.3854C10.4017 15.7675 11.4704 16.3334 11.9999 16.3334C12.5294 16.3334 13.5982 15.7661 14.1547 15.3854C14.4138 15.2271 14.7254 15.1709 15.0256 15.2285C15.3259 15.2861 15.5922 15.4531 15.77 15.6953C15.9479 15.9375 16.0238 16.2366 15.9823 16.5314C15.9407 16.8262 15.7849 17.0945 15.5467 17.2813C14.9358 17.7009 14.2775 18.0513 13.5847 18.3254C13.4714 18.3678 13.374 18.4425 13.3053 18.5397C13.2366 18.6369 13.1999 18.7522 13.1999 18.8701V27.4167C13.1999 27.5714 13.2631 27.7198 13.3757 27.8292C13.4882 27.9385 13.6408 28 13.7999 28H15.5999C15.9182 28 16.2234 27.8771 16.4484 27.6583C16.6735 27.4395 16.7999 27.1428 16.7999 26.8333V25.0833C16.7999 23.6338 18.6269 21.953 19.9611 20.7251L20.3294 20.3853C22.7309 18.1563 23.9998 15.1382 23.9998 11.6667C24.0078 10.1334 23.7032 8.61384 23.1035 7.19571C22.5039 5.77759 21.6212 4.48904 20.5064 3.40451Z" fill="black"/>
</svg>
