<svg width="50" height="50" viewBox="0 0 50 50" fill="none" xmlns="http://www.w3.org/2000/svg">
<path fill-rule="evenodd" clip-rule="evenodd" d="M46.875 43.75C46.875 45.4688 45.475 46.875 43.75 46.875H6.25C4.525 46.875 3.125 45.4688 3.125 43.75V6.25C3.125 4.53125 4.525 3.125 6.25 3.125H43.75C45.475 3.125 46.875 4.53125 46.875 6.25V43.75ZM43.75 0H6.25C2.79844 0 0 2.79688 0 6.25V43.75C0 47.2031 2.79844 50 6.25 50H43.75C47.2016 50 50 47.2031 50 43.75V6.25C50 2.79688 47.2016 0 43.75 0ZM34.375 23.4375H26.5625V15.625C26.5625 14.7656 25.8625 14.0625 25 14.0625C24.1375 14.0625 23.4375 14.7656 23.4375 15.625V23.4375H15.625C14.7625 23.4375 14.0625 24.1406 14.0625 25C14.0625 25.8594 14.7625 26.5625 15.625 26.5625H23.4375V34.375C23.4375 35.2344 24.1375 35.9375 25 35.9375C25.8625 35.9375 26.5625 35.2344 26.5625 34.375V26.5625H34.375C35.2375 26.5625 35.9375 25.8594 35.9375 25C35.9375 24.1406 35.2375 23.4375 34.375 23.4375Z" fill="black"/>
</svg>
