<svg width="25" height="25" viewBox="0 0 25 25" fill="none" xmlns="http://www.w3.org/2000/svg">
<circle cx="12.5" cy="12.5" r="12.5" transform="rotate(180 12.5 12.5)" fill="#D9D9D9"/>
<path d="M9.78341 6.25726L16.7719 12.0198C16.8548 12.0884 16.9135 12.1627 16.9477 12.2427C16.9826 12.3228 17 12.4085 17 12.5C17 12.5915 16.9826 12.6772 16.9477 12.7573C16.9135 12.8373 16.8548 12.9116 16.7719 12.9802L9.78341 18.7599C9.58986 18.92 9.34793 19 9.0576 19C8.76728 19 8.51843 18.9142 8.31106 18.7427C8.10369 18.5712 8 18.3712 8 18.1425C8 17.9138 8.10369 17.7137 8.31106 17.5422L14.4078 12.5L8.31106 7.45778C8.11751 7.29771 8.02074 7.1006 8.02074 6.86644C8.02074 6.63182 8.12442 6.42876 8.3318 6.25726C8.53917 6.08575 8.78111 6 9.0576 6C9.3341 6 9.57604 6.08575 9.78341 6.25726Z" fill="black"/>
</svg>
