<svg width="24" height="25" viewBox="0 0 24 25" fill="none" xmlns="http://www.w3.org/2000/svg">
<g clip-path="url(#clip0_198_119)">
<path d="M3 3.125H6V6.25H3V3.125Z" fill="black"/>
<path d="M9 0V9.375H0V0H9ZM7.5 1.5625H1.5V7.8125H7.5V1.5625ZM6 18.75H3V21.875H6V18.75Z" fill="black"/>
<path d="M9 15.625V25H0V15.625H9ZM1.5 17.1875V23.4375H7.5V17.1875H1.5ZM18 3.125H21V6.25H18V3.125Z" fill="black"/>
<path d="M15 0V9.375H24V0H15ZM22.5 1.5625V7.8125H16.5V1.5625H22.5ZM12 1.5625V0H13.5V3.125H12V6.25H10.5V1.5625H12ZM12 9.375V6.25H13.5V9.375H12ZM9 12.5V10.9375H10.5V9.375H12V12.5H13.5V10.9375H21V12.5H15V14.0625H10.5V12.5H9ZM9 12.5V14.0625H3V12.5H1.5V14.0625H0V10.9375H4.5V12.5H9ZM24 14.0625H22.5V10.9375H24V14.0625ZM22.5 14.0625H21V17.1875H24V15.625H22.5V14.0625ZM16.5 14.0625H19.5V15.625H18V17.1875H16.5V14.0625ZM19.5 18.75V17.1875H18V18.75H16.5V20.3125H13.5V21.875H18V18.75H19.5ZM19.5 18.75H24V20.3125H21V21.875H19.5V18.75ZM13.5 17.1875V18.75H15V15.625H10.5V17.1875H13.5Z" fill="black"/>
<path d="M10.5 18.75H12V23.4375H18V25H10.5V18.75ZM24 21.875V25H19.5V23.4375H22.5V21.875H24Z" fill="black"/>
</g>
<defs>
<clipPath id="clip0_198_119">
<rect width="24" height="25" fill="white"/>
</clipPath>
</defs>
</svg>
