<svg width="12" height="18" viewBox="0 0 12 18" fill="none" xmlns="http://www.w3.org/2000/svg">
<path d="M6.91667 11.427L6.5 11.4974V11.92V14V14.5H7H8.5V15.5H7H6.5V16V17.5H5.5V16V15.5H5H3.5V14.5H5H5.5V14V11.92V11.4974L5.08333 11.427C2.47978 10.987 0.5 8.72185 0.5 6C0.5 4.54131 1.07946 3.14236 2.11091 2.11091C3.14236 1.07946 4.54131 0.5 6 0.5C7.45869 0.5 8.85764 1.07946 9.88909 2.11091C10.9205 3.14236 11.5 4.54131 11.5 6C11.5 8.72185 9.52022 10.987 6.91667 11.427ZM6 1.5C4.80653 1.5 3.66193 1.97411 2.81802 2.81802C1.97411 3.66193 1.5 4.80653 1.5 6C1.5 7.19347 1.97411 8.33807 2.81802 9.18198C3.66193 10.0259 4.80653 10.5 6 10.5C7.19347 10.5 8.33807 10.0259 9.18198 9.18198C10.0259 8.33807 10.5 7.19347 10.5 6C10.5 4.80653 10.0259 3.66193 9.18198 2.81802C8.33807 1.97411 7.19347 1.5 6 1.5Z" fill="#FFC0CB" stroke="#FA5773"/>
</svg>
