<svg width="284" height="112" viewBox="0 0 284 112" fill="none" xmlns="http://www.w3.org/2000/svg">
<g opacity="0.1">
<path d="M170.681 14.957C170.681 14.957 169.961 15.4084 169.537 15.9363C169.367 16.162 168.901 16.2744 168.435 16.3124H168.392C167.63 16.3878 166.739 16.3124 166.273 16.1241C165.426 15.8609 165.129 15.3705 164.62 15.5213C164.493 15.5593 164.451 15.5967 164.366 15.6342C164.069 15.8224 163.942 16.0482 163.137 16.2739C162.077 16.5001 162.162 16.8018 162.12 17.4795C162.077 18.1572 162.331 18.5716 162.035 19.0236C161.781 19.513 160.001 19.3247 158.899 19.2493C158.602 19.2119 158.305 19.2493 158.051 19.3627H158.009V19.4002C157.373 19.5884 156.821 20.0399 156.059 20.6806C154.999 21.622 155.338 21.6594 153.94 21.4712C153.601 21.3958 153.219 21.4337 152.795 21.5091C151.693 21.622 150.507 22.1489 149.447 22.6762C148.049 23.3544 148.981 23.6556 148.854 25.0109C148.727 26.3293 148.388 27.007 147.54 27.5714C146.692 28.1367 146.014 28.2121 144.7 29.7183C144.573 29.8312 144.488 29.9445 144.404 30.0574C143.344 31.2245 143.174 31.3373 142.751 31.2624C142.242 31.2245 142.581 28.4383 142.581 27.5714C142.581 26.7429 143.09 25.764 144.361 24.8227L144.404 24.7847C145.633 23.9187 146.481 23.7305 147.498 22.5634C148.473 21.3578 148.6 20.6427 148.219 20.0394C147.837 19.4371 146.778 21.1316 145.972 21.4707C145.125 21.7718 145.04 21.2824 144.404 20.7925L144.361 20.755C144.065 20.5668 143.599 20.6422 143.132 20.7925V20.8304C142.496 21.0182 141.818 21.3953 141.479 21.4332C140.928 21.4707 140.293 21.7344 139.318 22.2617C139.276 22.2617 139.191 22.2997 139.148 22.3371C138.131 22.9015 137.749 22.45 136.605 22.0355C135.503 21.584 134.317 21.2824 132.621 21.8852C131.986 22.1109 131.053 22.8266 130.163 23.6551C130.12 23.693 130.036 23.7305 129.994 23.7684C128.553 25.1243 127.196 26.7054 127.323 27.1953C127.577 28.0238 128.595 27.873 129.951 28.5881C131.307 29.3038 130.248 29.3038 129.739 30.8859C129.23 32.467 129.4 32.6558 129.061 34.0111C128.68 35.3665 126.39 36.4967 125.839 36.9856C125.289 37.4755 123.932 38.6805 122.533 38.4923C121.135 38.266 121.135 39.3962 120.075 41.0152C119.057 42.6343 119.821 42.1828 120.032 43.0868C120.245 43.9527 119.142 46.0996 118.337 46.8148C117.574 47.5299 116.854 46.212 117.235 44.7812C117.574 43.3125 116.769 44.0281 115.878 43.7644C114.946 43.4633 116.514 42.8985 116.344 42.1454C116.217 41.3923 115.158 42.07 114.776 42.2208C114.395 42.4086 113.929 42.7097 113.166 41.9946C112.488 41.3923 112.615 41.1286 112.657 41.0907C112.53 41.2035 111.682 41.9566 110.623 42.8226C109.436 43.8019 110.835 43.2371 112.149 43.5382C113.463 43.8014 112.912 43.5382 114.056 44.0276C115.2 44.5545 113.208 44.592 112.403 44.8561C111.64 45.0824 111.682 45.4959 112.572 46.0617C113.42 46.626 113.971 47.5299 114.352 49.6769C114.776 51.8233 113.25 52.3127 111.852 53.8943C110.41 55.5139 107.783 56.229 106.003 56.681C104.18 57.1329 104.646 57.7727 103.12 57.5469C101.637 57.2832 102.231 57.0196 100.959 57.3966C99.6872 57.8101 100.959 58.714 102.188 59.995C103.417 61.2754 101.849 64.2129 101.001 64.589C100.153 64.9281 99.9413 66.0952 98.8391 65.9444C97.6947 65.794 97.9915 65.003 96.9319 64.5136C95.8297 63.9867 96.8044 65.832 97.6098 67.8651C98.3726 69.8232 99.2201 69.7857 99.5169 70.8774C99.5169 70.9149 99.5591 70.9903 99.5591 71.0657C99.6861 71.8563 98.7536 71.706 97.6093 71.0657C97.4817 70.9903 97.3974 70.9528 97.2703 70.8774C96.5925 70.4639 95.914 69.9361 95.2783 69.3338C93.4561 67.5639 93.5831 67.8276 92.9896 65.9444C92.3966 64.0616 92.4387 63.8733 91.6754 63.3834C90.9127 62.8566 91.0824 62.5175 91.2516 61.689C91.4208 60.823 87.3947 56.7933 85.7843 56.643C84.1313 56.4922 84.6399 57.0196 83.8345 57.8481C83.0291 58.714 81.2068 59.5051 79.8927 60.2961C78.5786 61.1251 78.6634 61.6895 78.6634 63.9492C78.6634 66.1706 77.9428 66.0957 75.4849 66.7359C73.0269 67.3756 74.2135 64.9655 73.4507 64.4382C72.688 63.9492 71.7977 61.4632 71.3739 58.8269C70.9079 56.1536 70.5684 58.2626 68.3645 57.6972C66.2033 57.1329 67.1353 55.0614 65.6941 54.3463C64.253 53.6311 63.7021 53.9318 62.3458 54.4971C60.9896 55.0614 59.5484 54.3463 58.6586 53.3295C57.811 52.3127 56.6666 52.9529 55.0985 52.6518C53.5303 52.3881 54.0389 52.0116 52.6405 51.8228C51.2421 51.5971 52.7675 52.915 53.7427 54.1954C54.6752 55.4759 55.8196 54.8357 59.1251 55.9653C62.4313 57.095 59.4641 57.5849 58.1505 58.752C56.8364 59.9196 55.7347 60.0704 53.9119 60.9364C52.0897 61.8403 51.4112 61.9157 49.5041 62.5929C47.6392 63.2711 47.2154 62.7812 45.9439 62.3297C44.6725 61.8777 43.8249 59.7308 42.3838 56.9821C40.9005 54.1954 39.8831 52.3881 38.7814 51.1826C37.6792 49.9775 37.9338 51.4462 38.2728 52.3127C38.6544 53.1412 39.4593 54.2709 40.3069 56.4552C41.1972 58.6017 41.0275 57.8481 41.494 59.3922C42.0027 60.8989 44.4612 64.2124 45.9439 64.9281C47.4273 65.6812 50.9874 64.3628 52.7675 64.3248C54.5898 64.2869 52.6405 65.1159 51.0302 68.3545C49.8009 70.8025 49.1652 70.4634 47.9359 70.8774C47.5548 71.0283 47.0883 71.2545 46.4948 71.6685C44.1211 73.4009 43.9092 75.2841 43.5703 77.4675C43.4854 78.2211 43.5281 78.8988 43.6125 79.5765C43.6125 79.6519 43.6125 79.7273 43.6546 79.7648C43.6968 80.1413 43.7395 80.5553 43.8238 80.9324C43.866 81.1581 43.9087 81.4213 43.9087 81.6855C43.9508 81.9112 43.993 82.1744 43.993 82.4386C44.0352 82.7777 44.0779 83.1917 44.0352 83.5687C44.0352 83.6067 44.0352 83.6816 43.993 83.7195C43.993 84.0207 43.9087 84.2839 43.7389 84.548C43.6119 84.9246 43.3151 85.3011 43.0184 85.6402C42.128 86.6945 40.8566 87.5979 40.1788 88.3515C40.009 88.5398 39.882 88.728 39.7971 88.8783C39.755 88.9538 39.7128 89.0292 39.7128 89.1046C39.6279 89.2929 39.5858 89.4811 39.5431 89.6319C39.4582 89.8951 39.416 90.1214 39.3739 90.385C39.2041 91.0253 38.9922 91.8912 38.2716 93.5857C38.1446 93.8494 38.0597 94.0756 37.9327 94.2639C37.763 94.565 37.5516 94.8287 37.3819 95.0175C37.2121 95.2432 37.0008 95.3935 36.7889 95.5443C36.1532 95.9588 35.4753 96.0717 34.7542 96.2975C34.2882 96.4483 33.7795 96.6745 33.3136 97.051C31.7032 98.369 30.9821 98.5572 29.3296 99.1221C29.1177 99.1975 28.8631 99.3103 28.609 99.3857C26.363 100.214 23.9045 98.9338 23.6504 97.7667C23.3963 96.5991 24.0742 96.4483 23.7774 94.5276C23.5234 92.6069 21.107 88.766 20.2594 86.8828C19.4118 85 19.9626 84.6239 21.3616 82.6278C22.7179 80.5943 20.3864 78.4094 19.0729 76.0752C17.7587 73.74 17.6744 75.0205 17.6744 73.3639C17.6744 71.7069 17.5474 71.1416 16.0641 70.4644C14.6229 69.7862 13.7331 69.3722 11.2319 68.8074C8.73126 68.2426 8.77342 69.4856 6.35762 69.184C3.89967 68.8454 4.0267 69.523 2.45851 69.3722C1.73793 69.2968 0.848164 68.8074 0 68.2426V47.8705C0.890322 47.2677 2.37364 46.9291 4.40834 46.2889C7.45984 45.3475 6.95117 46.176 9.62158 45.4979C12.292 44.8202 15.5554 44.143 17.3782 44.2553C19.2432 44.3682 18.9464 45.5733 18.9464 46.5146C18.9464 47.4185 19.4123 47.2682 21.7438 47.7951C24.1175 48.322 22.8461 49.0002 24.5834 49.3013C26.3635 49.6404 25.77 49.0002 26.6176 47.7576C27.423 46.5146 27.9739 47.7576 30.2199 48.737C32.5087 49.7537 32.3389 49.151 35.1791 48.8878C37.9765 48.5861 38.2306 48.9627 38.8663 48.6995C39.502 48.4733 39.5869 45.8754 39.2052 44.7073C38.7814 43.5402 38.1036 44.4441 36.6197 44.4441C35.6451 44.4441 35.3056 44.2558 35.3483 43.8039C35.3483 43.5407 35.4332 43.2016 35.6023 42.7491C35.6445 42.6737 35.6445 42.5988 35.6872 42.5609C35.9413 41.9206 36.1532 41.7698 36.7046 41.5815C37.0013 41.4687 37.4673 41.3558 38.103 41.0921C38.1452 41.0547 38.23 41.0547 38.2728 41.0547V41.0167C38.8663 40.8284 39.502 40.7156 40.1377 40.6781C41.2399 40.5653 42.2994 40.5653 43.1049 40.1508C43.2741 40.0379 43.4017 39.9625 43.4438 39.8871C43.6979 39.4736 42.4265 39.0965 41.621 38.6066C41.4518 38.5317 41.3243 38.4563 41.1972 38.3434C40.6885 37.854 40.6886 37.402 40.8156 36.8747C40.9005 36.5735 41.0275 36.2345 41.1545 35.8579C41.4513 34.8411 40.4339 35.5568 39.2474 36.159C38.0608 36.7618 39.4593 36.9875 38.9506 37.8161C38.6966 38.2301 38.2728 38.1926 37.8911 37.9664C37.637 37.8535 37.4251 37.6283 37.2554 37.3641C37.1284 37.2512 37.0435 37.1379 37.0013 37.025C36.7894 36.6115 36.4927 36.6115 36.0261 36.8747C35.6872 37.025 35.2634 37.3266 34.6699 37.7032C33.6947 38.306 34.0342 38.7579 34.119 39.511C34.1612 39.7368 34.1612 39.9625 34.119 40.2262C34.119 40.377 34.0342 40.5273 33.992 40.6781C33.6952 41.4687 33.1865 41.5441 32.6779 41.5066C32.1692 41.5066 31.6605 41.4312 31.4065 41.8452C30.8556 42.6737 31.2367 43.314 30.2194 43.4648C29.2447 43.6531 29.6264 44.143 29.1599 44.7827C28.736 45.4229 27.7187 44.2933 27.5495 43.0508C27.3803 41.8078 25.6845 40.4524 25.5154 39.8117C25.3456 39.1719 23.4385 38.4188 22.4211 38.1172C21.4459 37.8535 22.0822 38.7574 22.8871 39.6234C23.6926 40.4524 25.218 40.7156 25.3456 41.6195C25.4305 42.5609 24.6672 42.0715 24.0742 42.5988C23.4806 43.1262 23.7774 44.2184 22.8871 44.5565C21.9546 44.9335 22.0816 43.5402 22.2936 42.2977C22.5055 41.0921 21.1913 40.8664 20.2594 40.0754C19.2848 39.2468 17.8009 38.4942 17.2928 38.1172C16.8268 37.7786 15.5127 39.0965 14.0715 39.0586C12.6731 39.0211 13.2239 38.7954 12.6731 39.3602C12.1222 39.9245 11.486 40.9039 10.5541 41.0547C9.62158 41.2429 9.15562 41.8452 8.98587 42.7866C8.77397 43.7659 7.96852 43.8413 6.57008 44.3682C5.17108 44.8956 3.26396 44.2553 2.07742 43.8788C0.890322 43.5402 1.10222 42.7487 1.44171 41.9206C1.56874 41.6574 1.6109 41.2809 1.73849 40.8659C1.95039 39.9999 2.28932 38.9452 3.47586 38.5692C3.94238 38.4183 4.28131 38.3809 4.57809 38.3809C4.62024 38.3434 4.62024 38.3434 4.62024 38.3434C5.46785 38.306 5.89166 38.5697 6.86685 38.3434C8.18098 38.0043 7.75662 37.4395 7.71446 35.82C7.71446 35.745 7.71446 35.6696 7.6723 35.5942C7.50256 34.3138 5.76518 34.8037 5.51112 33.8623C5.29922 32.883 7.0366 33.5232 10.0465 33.1087C10.2584 33.0712 10.4703 33.0333 10.6395 32.9579C11.7839 32.6567 12.2077 32.0165 12.4617 31.3383C12.7158 30.6606 12.8007 29.908 13.2672 29.5685C14.3267 28.7779 14.9624 28.5137 15.344 26.9326C15.7679 25.3515 17.1663 24.7482 18.4377 25.2007C18.6918 25.3136 18.8615 25.4264 18.9464 25.5772C19.2432 26.1046 18.4804 26.8577 18.5647 27.5728C18.6496 28.5142 19.921 28.3264 20.7265 28.5142C21.4892 28.665 24.838 28.1382 25.9819 27.3846C26.8722 26.7443 27.5079 26.1795 28.2706 25.6526C28.4398 25.5398 28.6096 25.3895 28.8215 25.2761C29.881 24.6359 29.0755 24.2214 29.3301 23.9202C29.5421 23.5816 30.3897 22.7152 30.0507 21.7738C29.7118 20.9827 28.5674 21.3598 27.8468 20.8699C27.762 20.7945 27.6776 20.6821 27.5928 20.5687C27.169 19.9285 27.4657 19.2129 27.8468 18.5352C28.0166 18.2335 28.1858 17.9324 28.3555 17.6313C28.4825 17.3676 28.4825 17.2168 28.3977 17.2168C28.3128 17.1418 28.1009 17.2168 27.8468 17.2922C27.4657 17.443 26.9992 17.6692 26.6176 17.82C25.6429 18.2335 25.0494 19.1 24.1591 20.2676C23.8201 20.7196 23.6504 21.0961 23.6082 21.4726C23.5661 21.5106 23.5661 21.5106 23.5661 21.5106C23.439 22.1129 23.6082 22.6777 23.6509 23.3933C23.7358 24.5604 21.8287 25.6901 20.9384 25.5398C20.4724 25.4269 20.2178 25.0504 20.0486 24.5984C19.9637 24.2219 19.9216 23.7699 19.8789 23.4313C19.794 22.7157 19.2432 22.2637 18.5226 22.4899C17.802 22.7536 16.3608 23.3184 14.9624 22.9788C13.5634 22.6777 13.9878 20.9078 14.6656 19.3637C15.344 17.82 15.7251 18.309 17.9717 17.2922C20.2605 16.3128 19.6243 15.8993 21.4471 14.5055C23.2271 13.0747 23.6088 12.0959 25.3889 10.9283C27.1263 9.7607 28.3133 9.34669 32.7211 8.93219C36.1543 8.59359 35.4764 9.0076 35.8997 9.72275C35.9418 9.87356 36.0694 10.0244 36.2808 10.1752C36.3229 10.2506 36.4078 10.326 36.4927 10.3635C37.5522 11.0417 38.3576 11.2679 39.375 11.4557C39.9258 11.5685 40.5615 11.6439 41.3243 11.8322C43.5281 12.3216 43.3162 12.9624 43.5709 13.4138C43.8676 13.8658 42.5962 14.6563 41.4518 14.6943H40.9432V14.6568C40.1377 14.6194 39.6718 14.3557 39.1631 14.1674C38.5274 13.9417 38.9512 14.6948 39.375 15.1467C39.7139 15.4853 40.2226 15.5987 41.028 15.5987C41.2399 15.5987 41.5367 15.5612 41.7908 15.5233C43.0622 15.4104 44.885 14.6194 45.4358 14.7327C45.6477 14.7702 46.0715 14.7327 46.5802 14.6199C47.47 14.3936 48.6992 14.093 49.5895 13.8668C50.988 13.4897 50.988 12.6992 51.5394 12.3606C51.9632 12.0594 52.8957 11.984 54.9298 12.1348C55.2688 12.1723 55.6926 12.1723 56.1169 12.2102C58.9565 12.3985 58.6597 11.9466 60.4825 11.3058C61.2453 11.0421 61.7967 11.0047 62.2626 11.0801C62.9411 11.1555 63.4919 11.4187 64.2973 11.4187C65.6958 11.4187 67.7305 10.6651 68.4084 9.83709C68.4505 9.79964 68.4505 9.76168 68.4932 9.76168C69.0868 9.00859 69.3835 9.34768 70.4431 8.78236C71.5874 8.18008 71.248 8.25549 74.2573 7.76608C77.3088 7.27666 78.1143 8.44426 79.4284 7.76608C80.742 7.08789 78.7927 5.54424 79.1738 5.12974C79.5127 4.67828 82.4372 5.05433 83.7086 4.56541C84.9805 4.03755 84.2173 3.35986 84.8108 2.75807C85.4044 2.11784 87.7353 1.85416 90.1089 1.66588C92.5247 1.43966 92.3977 2.19276 93.4572 1.92907C94.4745 1.70334 94.1778 1.02516 95.0254 0.874836C95.873 0.76197 95.873 0.346978 96.3817 0.121245C96.8903 -0.104487 98.6277 -0.0670311 99.984 0.686067C101.383 1.43916 101.637 0.573201 103.078 0.686067C104.519 0.798933 103.883 1.92858 103.883 2.45595C103.883 2.98331 102.824 4.07501 101.934 4.4141C101.086 4.79065 101.849 5.28006 103.12 5.20465C104.392 5.12925 105.197 4.71524 106.723 4.60237C108.207 4.52696 108.757 4.79065 110.156 5.35547C111.555 5.9198 112.742 5.9198 113.632 5.73202C114.564 5.50629 114.267 4.79065 114.776 4.64032C115.285 4.45205 117.828 5.39342 119.184 5.88284C120.541 6.37225 118.973 6.93708 119.184 7.46444C119.354 7.95337 120.922 8.85728 121.939 8.74441C122.914 8.63155 122.533 7.72812 124.143 7.80304C125.796 7.87845 126.262 7.87845 128 7.38903C129.78 6.93658 129.653 6.56053 132.239 6.71085C134.824 6.89912 134.782 7.0874 135.672 7.20027C136.562 7.31313 136.943 6.97404 138.723 7.46395C140.461 7.91541 139.91 9.04506 140.376 9.27129C140.842 9.49702 141.606 9.42161 143.428 9.30874C143.936 9.27128 144.233 9.27128 144.402 9.30874C144.911 9.38415 144.784 9.72275 145.547 10.1747C146.606 10.8144 145.929 10.9653 146.606 10.8524C146.733 10.8524 146.903 10.8149 147.072 10.777C147.708 10.6641 148.513 10.4384 149.7 10.363C151.268 10.2127 151.226 10.4004 152.116 10.9278C153.006 11.4172 153.727 11.3418 154.659 10.9653C155.549 10.5513 154.913 10.1747 155.04 10.1747C155.21 10.1747 156.863 10.4758 159.194 10.739C159.872 10.8144 160.381 10.9273 160.847 11.0407C161.907 11.3044 162.585 11.643 164.068 12.1329C164.534 12.2832 164.916 12.434 165.171 12.6218C166.103 13.1496 166.018 13.714 166.739 14.2034C167.713 14.8436 167.713 14.3163 168.604 13.9777C168.689 13.9402 168.731 13.9402 168.773 13.9402C169.579 13.6765 170.003 14.2793 170.681 14.957Z" fill="white"/>
<path d="M130.909 36.8772C131.502 37.0709 132.631 37.8837 133.311 37.8437C133.99 37.8033 134.353 38.6087 133.809 38.689C133.265 38.7693 131.453 39.5343 131.453 39.5343C131.453 39.5343 130.909 38.9305 130.592 39.5343C130.274 40.138 130.093 40.5811 130.184 40.9434C130.274 41.3056 130.909 42.3525 130.547 42.8759C130.184 43.3993 129.686 43.6812 129.686 44.3254C129.686 44.9696 130.139 45.6542 129.504 45.9361C128.87 46.218 128.236 46.2984 127.692 46.4595C127.148 46.6207 126.74 46.6606 126.513 47.1037C126.287 47.5468 125.743 48.191 124.61 48.1505C123.477 48.1101 123.477 47.3053 122.435 48.0702C121.393 48.8351 121.348 49.2782 120.804 49.0766C120.26 48.8755 120.668 48.5936 120.804 47.8287C120.94 47.0638 118.946 47.2649 120.758 46.3792C122.571 45.4935 122.571 45.3728 123.794 45.2116C125.018 45.0504 125.697 45.5738 126.196 44.6477C126.694 43.7217 126.196 43.3594 127.193 43.319C128.19 43.2786 128.824 43.6812 129.006 42.6748C129.187 41.6684 129.051 40.8226 129.006 40.1784C128.96 39.5343 128.688 38.9305 129.504 38.689C130.32 38.4475 130.411 38.8901 130.501 38.3268C130.592 37.7634 130.049 36.5958 130.909 36.8772Z" fill="white"/>
<path d="M112.693 58.6987C113.554 58.8194 113.962 60.1881 113.69 60.7519C113.418 61.3158 113.146 61.96 113.916 62.0807C114.687 62.2015 115.23 62.2818 115.23 62.7653C115.23 63.2483 115.548 62.2419 116.137 63.5302C116.726 64.8186 116.182 65.0202 116.862 65.9862C117.541 66.9527 118.357 67.4357 117.405 67.9187C116.454 68.4017 117.179 68.9251 116.182 68.6432C115.185 68.3613 115.593 68.5225 115.095 67.6772C114.596 66.8319 114.279 67.516 113.826 67.4761C113.373 67.4357 113.237 67.4357 113.6 66.8723C113.962 66.3085 114.143 66.3489 113.735 65.7047C113.328 65.0606 113.962 64.2956 113.373 64.1749C112.784 64.0541 112.602 64.9398 111.56 65.5037C110.518 66.0675 108.977 66.2282 109.023 66.0271C109.068 65.826 109.657 65.5441 110.609 64.4972C111.56 63.4504 112.149 64.0946 111.968 62.4844C111.787 60.8737 111.153 61.3168 111.742 60.1896C112.331 59.0609 112.693 58.6987 112.693 58.6987Z" fill="white"/>
<path d="M109.793 67.838C110.479 68.4472 111.379 68.2811 111.107 68.8848C110.836 69.4886 110.028 69.5694 110.477 70.1732C110.927 70.7769 111.334 71.6631 111.923 71.5823C112.512 71.502 112.467 71.0993 113.917 71.0993C115.367 71.0993 116.273 70.8174 116.364 71.3408C116.454 71.8642 115.729 71.9046 114.778 72.6695C113.827 73.4345 112.875 74.1994 113.645 74.6824C114.416 75.1654 114.732 76.0511 114.461 76.3734C114.189 76.6958 113.917 77.0176 114.551 77.4203C115.186 77.8229 118.222 77.7022 117.497 78.6682C116.772 79.6347 115.004 80.1576 113.147 80.1981C111.289 80.2385 112.782 79.755 109.022 79.4331C105.262 79.1108 104.628 79.9565 101.999 78.8294C99.3712 77.7022 97.6494 78.6682 96.1993 76.6149C94.7493 74.5617 95.3384 75.5681 93.5256 73.4345C91.7133 71.3009 92.5742 71.3009 91.0332 70.4551C89.4928 69.6098 88.1787 68.4018 89.2204 68.4018C90.2627 68.4018 89.764 67.3146 92.9814 69.6902C96.1988 72.0658 95.3378 71.9445 97.6943 73.3541C100.051 74.7632 100.821 74.9244 101.682 74.7632C102.543 74.6021 103.812 74.7632 102.996 73.8371C102.181 72.9111 101.728 71.7435 102.407 71.5424C103.087 71.3413 103.042 72.3477 104.175 71.2604C105.307 70.1732 105.307 69.8918 106.304 69.529C107.301 69.1668 106.757 69.529 107.709 69.0056C108.661 68.4822 109.023 67.1539 109.793 67.838Z" fill="white"/>
<path d="M122.254 72.5083C122.747 73.0716 123.568 73.7966 123.93 74.4004C124.293 75.0042 124.973 73.8888 126.287 73.9233C127.601 73.9578 129.55 74.6015 130.365 74.9238C131.181 75.2462 132.586 75.4472 133.447 76.4941C134.308 77.5409 134.942 76.9372 134.987 77.984C135.033 79.0309 135.213 78.9101 135.984 79.5139C136.754 80.1176 136.89 81.2453 135.531 80.7618C134.171 80.2788 133.763 78.6282 132.313 78.7889C130.863 78.95 131.452 79.3123 130.32 79.5134C129.187 79.7145 128.688 79.3522 127.329 79.2719C125.97 79.1915 124.973 79.5942 125.607 78.507C126.242 77.4197 126.695 77.3798 124.475 76.5744C122.254 75.7691 121.393 76.1718 121.393 75.3265C121.393 74.4812 121.756 74.4004 120.894 73.6759C120.034 72.9514 119.762 72.428 120.305 72.0652C120.85 71.703 121.937 72.146 122.254 72.5083Z" fill="white"/>
<path d="M124.883 84.1034C126.378 84.7879 126.967 86.1566 127.692 85.9151C128.417 85.6736 128.145 85.271 128.689 83.8214C129.233 82.3719 129.278 80.8825 129.958 81.4862C130.637 82.09 130.003 83.2689 131.09 83.646C132.178 84.023 132.405 84.3049 132.631 85.4321C132.857 86.5593 133.084 86.197 134.217 87.3646C135.349 88.5322 136.367 88.3312 136.56 89.6594C136.754 90.9882 138.657 92.3569 138.748 93.7256C138.839 95.0943 139.111 96.0607 137.978 97.7922C136.845 99.5231 136.392 100.409 136.029 101.134C135.666 101.858 134.579 102.221 133.401 102.221C132.223 102.221 131.543 101.778 130.818 101.939C130.093 102.1 129.594 102.906 128.733 102.342C127.872 101.778 127.374 101.053 127.102 100.61C126.83 100.167 126.694 98.6779 125.426 98.839C124.157 99.0002 124.338 99.5636 123.568 98.839C122.797 98.1145 123.341 97.5103 121.076 97.1884C118.81 96.8661 118.221 96.7054 117.269 96.9065C116.318 97.1081 115.32 97.3895 114.279 98.1145C113.236 98.839 111.605 98.4768 110.699 98.839C109.793 99.2013 108.433 100.007 107.436 99.5236C106.439 99.0406 106.802 98.7991 106.847 97.6714C106.892 96.5442 106.802 97.3092 106.167 95.3766C105.533 93.4441 105.805 93.726 105.216 92.8C104.627 91.8739 104.174 92.3169 104.99 90.9882C105.805 89.6594 105.533 89.378 105.987 88.9349C106.44 88.4923 106.848 89.0557 108.388 88.1296C109.928 87.2035 110.382 87.6061 111.787 87.1231C113.191 86.6401 113.509 84.7879 114.37 84.2241C115.23 83.6603 115.457 83.2177 116.091 83.2177C116.725 83.2177 117.451 83.54 118.584 83.9422C119.716 84.3449 119.49 84.3848 120.441 83.4592C121.393 82.5331 120.441 81.6474 122.163 81.8086C123.885 81.9697 124.52 81.7282 124.746 82.6139C124.973 83.4996 124.883 84.1034 124.883 84.1034Z" fill="white"/>
<path d="M156.33 103.107C157.237 102.06 157.69 101.939 157.372 100.732C157.055 99.5237 157.146 98.5764 158.324 99.6543C159.502 100.732 160.816 101.336 161.723 101.376C162.629 101.416 164.804 102.02 162.584 103.51C160.363 104.999 160.771 103.953 159.004 106.167C157.237 108.381 158.596 108.421 156.467 109.508C154.337 110.595 151.981 111.078 152.434 110.112C152.887 109.145 152.66 109.145 154.609 107.857C156.558 106.569 157.826 105.603 157.826 104.515C157.826 103.428 156.33 103.107 156.33 103.107Z" fill="white"/>
<path d="M48.1213 92.2363C47.3058 91.1895 47.3058 90.8676 47.2149 89.1766C47.1244 87.4856 46.4898 86.6802 47.2149 85.7142C47.9399 84.7477 49.8431 83.1375 50.5681 82.0103C51.2931 80.8831 51.4745 78.4676 51.9277 80.6416C52.3809 82.8157 53.831 84.104 51.6559 87.0031C49.4809 89.9011 48.1213 92.2363 48.1213 92.2363Z" fill="white"/>
<path d="M4.52955 32.3277C4.34815 32.0054 5.16414 30.959 5.16414 30.959C5.16414 30.959 6.16097 30.476 5.88916 28.7042C5.61735 26.9328 5.43596 27.9796 4.71094 26.2886C3.98592 24.5976 2.89812 24.9199 3.98592 23.7923C5.07317 22.6651 6.34236 20.9741 6.61418 22.3428C6.88599 23.7114 6.25194 24.5976 6.88599 25.2418C7.52058 25.886 8.78922 26.019 9.51424 27.0797C10.2393 28.1403 13.1393 28.543 10.9643 29.9117C8.78922 31.2804 7.7924 30.3947 6.97696 31.3612C6.16153 32.3277 4.52955 32.3277 4.52955 32.3277Z" fill="white"/>
<path d="M1.62934 31.0397C3.07938 30.3152 3.60913 30.4759 3.52537 29.1875C3.44161 27.8992 4.43843 26.772 2.89798 26.6912C1.35753 26.6108 0.904327 27.4157 0.722935 27.9795C0.541542 28.5434 0.541542 28.704 0.994746 29.2679C1.44795 29.8317 1.53837 30.6366 1.35753 31.0392C1.17669 31.4419 1.62934 31.0397 1.62934 31.0397Z" fill="white"/>
<path d="M283.997 83.0727C283.716 83.6661 283.561 84.3601 283.661 85.7135C283.842 88.1305 283.932 87.887 283.39 89.097C282.845 90.304 280.853 90.4647 279.22 91.3509C277.59 92.2371 277.5 91.5116 276.412 93.9286C275.325 96.3431 275.957 95.0558 275.05 97.1485C274.147 99.2417 275.415 98.1953 272.785 99.4023C270.158 100.609 269.16 99.563 268.889 100.289C268.618 101.014 270.429 100.449 268.528 101.98C266.623 103.508 265.807 103.913 264.629 104.555C263.452 105.2 262.725 105.926 263 107.294C263.271 108.661 264.629 108.581 263.09 109.872C261.599 111.116 260.956 109.955 260.505 111.767H253.392V111.56C253.392 109.628 253.121 111.079 254.208 107.778C255.296 104.475 253.482 105.602 254.389 101.98C255.296 98.3555 255.115 94.49 256.019 91.8319C256.926 89.1769 258.92 89.9019 256.926 87.4849C254.931 85.0703 254.57 85.472 252.85 83.8603C251.126 82.2516 252.214 82.573 251.217 80.6399C250.219 78.7074 249.587 78.8681 248.77 77.4201C247.954 75.9691 247.502 76.4536 248.316 74.0365C249.132 71.622 247.322 71.7023 249.132 70.9768C250.946 70.2543 250.675 68.4819 250.4 67.8368C250.129 67.1946 251.762 66.9506 249.222 66.6298C246.685 66.3089 245.959 67.031 245.055 65.6637C244.149 64.296 244.871 64.0521 242.971 63.2492C241.067 62.4434 238.982 62.4434 238.256 61.7982C237.533 61.153 237.533 61.153 237.533 61.153C237.533 61.153 238.891 60.6715 235.809 60.3502C232.731 60.0264 230.462 60.3502 228.923 58.4176C227.383 56.4851 227.744 57.6118 227.383 55.84C227.019 54.0676 226.567 54.0676 225.118 52.9409C223.666 51.8137 223.666 51.1686 222.307 50.6871C220.949 50.2026 220.677 50.3662 220.677 50.6067C220.677 50.8472 220.587 51.8137 221.856 52.6999C223.124 53.5861 223.214 54.3919 223.214 54.7931C223.214 55.1943 221.491 55.6793 221.491 55.6793C221.491 55.6793 221.491 55.1948 220.948 54.0676C220.403 52.9409 220.222 52.3786 219.134 51.0079C218.046 49.6402 217.776 49.4795 217.776 49.4795C217.776 49.4795 216.507 47.7077 214.332 45.3735C212.157 43.0363 211.521 44.4873 211.521 41.8293C211.521 39.1713 212.066 39.1713 211.521 37.3186C210.979 35.4689 209.711 34.5832 210.798 34.2589C211.886 33.938 212.519 33.456 210.527 31.9247C208.533 30.3933 207.807 31.1992 207.081 29.106C206.358 27.0128 207.897 27.1734 204.908 26.2069C201.917 25.2404 201.555 24.4346 200.193 23.8727C198.835 23.3079 198.018 22.9866 198.018 22.9866C198.018 22.9866 198.292 22.7455 195.03 22.5021C191.767 22.2611 192.129 20.8934 189.682 21.7795C187.388 22.611 186.926 22.8032 186.874 22.8234C186.945 22.746 188.165 21.3813 185.874 21.5361C183.518 21.6992 184.064 22.1812 183.973 23.1477C183.883 24.1142 184.245 25.2409 182.615 25.8057C180.982 26.3676 178.626 27.8989 179.533 26.2873C180.44 24.6786 182.705 23.5519 181.889 23.1472C181.072 22.746 179.352 24.0334 179.168 22.746C178.987 21.4557 179.352 20.8135 177.448 20.7332C175.544 20.6528 174.004 19.9273 175.453 19.3625C176.902 18.8006 178.264 19.0412 178.716 17.6735C179.168 16.3028 182.521 15.982 178.807 16.0618C175.092 16.1421 173.459 16.1421 173.914 15.497C174.366 14.8548 174.185 13.6473 176.812 13.9686C179.443 14.2899 179.443 13.3234 178.807 12.6812C177.393 11.2445 175.092 11.1499 176.903 10.2642C178.717 9.37806 179.804 8.81619 181.528 8.49188C183.248 8.17103 185.061 8.81619 187.869 9.45839C190.68 10.1036 195.211 9.53873 197.296 10.1036C199.381 10.6684 200.375 11.7951 201.011 11.7152C201.647 11.6319 203.457 9.94288 205.271 9.94288C207.082 9.94288 207.989 9.70187 211.706 10.1036C215.421 10.5047 219.045 10.6684 219.136 11.4713C219.226 12.2771 219.226 12.6812 220.588 12.6812C221.947 12.6812 223.125 11.9557 223.941 13.0829C224.754 14.2096 226.023 15.0154 225.842 14.1293C225.661 13.2431 224.754 12.5176 225.481 12.1968C226.207 11.8754 228.291 11.7152 228.834 11.8754C229.379 12.0361 231.099 12.2771 231.645 12.1968C232.187 12.1164 231.825 11.3106 233.636 11.7951C235.45 12.2771 235.721 13.4841 236.086 13.5645C236.447 13.6477 237.264 12.3288 237.354 11.457C237.444 10.5851 238.257 10.5851 236.628 9.45839C234.998 8.3317 236.47 6.96351 237.638 7.44553C238.803 7.93002 238.077 8.57271 239.255 9.61906C240.433 10.6684 240.617 11.5516 241.43 11.2307C242.246 10.9094 241.794 9.53873 242.882 10.5856C243.97 11.6324 244.241 11.1075 245.238 10.9266C246.235 10.7487 245.419 10.1839 246.597 10.7487C247.775 11.3106 249.769 11.9557 248.317 13.0026C246.868 14.0494 244.693 13.8888 243.153 14.6946C241.611 15.4975 242.066 15.2565 241.611 16.223C241.159 17.1895 241.339 17.2698 239.529 17.674C237.715 18.0752 237.17 17.7543 237.264 19.122C237.354 20.4897 237.17 20.6533 236.538 21.3759C235.902 22.1014 236.267 22.7465 236.99 23.0679C237.716 23.3892 238.533 22.8269 238.533 23.7934C238.533 24.7599 239.891 25.4824 241.705 25.4824C243.516 25.4824 244.332 25.8866 245.42 27.0941C246.507 28.3011 244.965 28.3815 246.778 29.9128C248.592 31.4412 250.312 32.1667 250.587 30.799C250.858 29.4283 250.587 29.107 250.858 27.4987C251.129 25.8871 252.853 25.7264 251.946 24.2754C251.039 22.8274 249.68 22.1822 250.948 21.3764C252.216 20.5735 250.677 19.8278 252.853 19.435C255.028 19.0422 256.477 18.7208 257.384 20.1688C258.287 21.6198 257.293 22.5859 258.197 23.2286C259.104 23.8737 261.914 22.9072 262.457 22.3424C263.002 21.7805 264.542 21.8604 265.087 23.9541C265.629 26.0473 265.991 26.6121 266.808 26.8531C267.624 27.0941 267.624 27.5786 268.622 28.3815C269.619 29.1873 271.52 30.4776 268.622 30.7186C265.72 30.9596 263.365 30.6383 262.277 31.5245C261.189 32.4077 261.098 31.7655 261.825 32.9725C262.548 34.1795 262.006 33.3737 262.548 34.905C263.093 36.4364 265.811 36.4363 263.816 37.4827C261.825 38.5295 262.186 38.7701 261.008 38.4492C259.83 38.1254 259.559 35.8139 258.197 37.6951C256.839 39.5759 257.019 40.2989 255.841 40.8638C254.663 41.4286 254.573 40.2989 253.486 42.0708C252.398 43.8431 254.121 44.0033 251.675 46.0162C249.225 48.0295 248.047 47.063 247.867 48.7545C247.686 50.4465 248.864 52.4594 248.228 52.8606C247.596 53.2647 247.686 53.1819 246.96 52.0548C246.237 50.9281 246.599 50.2854 244.062 50.1222C241.522 49.9616 241.706 49.3997 240.709 50.3662C239.711 51.3322 241.07 51.6536 238.259 51.3322C235.452 51.0084 235.09 48.029 234.545 51.4929C234.003 54.9538 233.912 55.3579 234.816 56.3244C235.723 57.291 238.169 59.6252 239.257 58.5783C240.344 57.5315 238.986 56.2441 241.07 56.6458C243.155 57.047 243.698 56.5655 243.336 57.6123C242.975 58.6587 240.163 58.8193 242.429 59.7858C244.695 60.7518 246.599 59.6252 246.78 61.1535C246.96 62.6849 246.508 63.0861 246.599 63.9722C246.689 64.8584 247.141 65.5036 249.226 65.5036C251.311 65.5036 251.221 64.7781 251.766 65.7446C252.308 66.7111 254.031 66.2291 254.755 64.8584C255.481 63.4907 256.023 61.9594 257.111 63.571C258.198 65.1827 258.382 65.5036 259.467 64.8584C260.554 64.2162 260.554 64.2162 260.554 64.2162C260.554 64.2162 261.735 63.2497 262.729 64.0526C263.727 64.8584 265.36 63.9722 265.721 65.0994C266.082 66.2291 265.54 66.3897 267.079 66.7914C268.622 67.1956 270.433 66.5504 271.339 67.6776C272.246 68.8048 269.8 68.0793 272.427 69.4499C275.054 70.8176 275.871 70.9783 275.69 71.8645C275.509 72.7507 276.235 72.9108 278.591 73.3958C280.947 73.8774 280.582 73.6368 282.486 74.9242C283.025 75.2884 283.532 75.5063 284 75.6438V83.0727H283.997Z" fill="white"/>
</g>
</svg>
