<svg width="41" height="35" viewBox="0 0 41 35" fill="none" xmlns="http://www.w3.org/2000/svg">
<path d="M4.1 3.88889H10.25L14.35 0H26.65L30.75 3.88889H36.9C37.9874 3.88889 39.0302 4.29861 39.7991 5.02792C40.568 5.75723 41 6.74638 41 7.77778V31.1111C41 32.1425 40.568 33.1317 39.7991 33.861C39.0302 34.5903 37.9874 35 36.9 35H4.1C3.01261 35 1.96976 34.5903 1.20086 33.861C0.431963 33.1317 0 32.1425 0 31.1111V7.77778C0 6.74638 0.431963 5.75723 1.20086 5.02792C1.96976 4.29861 3.01261 3.88889 4.1 3.88889ZM20.5 9.72222C17.7815 9.72222 15.1744 10.7465 13.2522 12.5698C11.3299 14.3931 10.25 16.8659 10.25 19.4444C10.25 22.0229 11.3299 24.4958 13.2522 26.3191C15.1744 28.1424 17.7815 29.1667 20.5 29.1667C23.2185 29.1667 25.8256 28.1424 27.7478 26.3191C29.6701 24.4958 30.75 22.0229 30.75 19.4444C30.75 16.8659 29.6701 14.3931 27.7478 12.5698C25.8256 10.7465 23.2185 9.72222 20.5 9.72222ZM20.5 13.6111C22.1311 13.6111 23.6954 14.2257 24.8487 15.3197C26.0021 16.4136 26.65 17.8973 26.65 19.4444C26.65 20.9915 26.0021 22.4753 24.8487 23.5692C23.6954 24.6632 22.1311 25.2778 20.5 25.2778C18.8689 25.2778 17.3046 24.6632 16.1513 23.5692C14.9979 22.4753 14.35 20.9915 14.35 19.4444C14.35 17.8973 14.9979 16.4136 16.1513 15.3197C17.3046 14.2257 18.8689 13.6111 20.5 13.6111Z" fill="black"/>
</svg>
