<svg width="22" height="25" viewBox="0 0 22 25" fill="none" xmlns="http://www.w3.org/2000/svg">
<path d="M10.9264 12.5C9.42401 12.5 8.13788 11.888 7.06801 10.664C5.99813 9.44009 5.46319 7.96874 5.46319 6.24999C5.46319 4.53124 5.99813 3.05989 7.06801 1.83594C8.13788 0.611979 9.42401 0 10.9264 0C12.4288 0 13.7149 0.611979 14.7848 1.83594C15.8546 3.05989 16.3896 4.53124 16.3896 6.24999C16.3896 7.96874 15.8546 9.44009 14.7848 10.664C13.7149 11.888 12.4288 12.5 10.9264 12.5ZM0 25V20.625C0 19.7396 0.199407 18.9255 0.59822 18.1828C0.997033 17.4401 1.52605 16.8739 2.18528 16.4844C3.5966 15.6771 5.03069 15.0713 6.48754 14.6672C7.94439 14.263 9.42401 14.0614 10.9264 14.0625C12.4288 14.0625 13.9084 14.2646 15.3652 14.6687C16.8221 15.0729 18.2562 15.6781 19.6675 16.4844C20.3276 16.875 20.8571 17.4416 21.2559 18.1844C21.6547 18.9271 21.8537 19.7406 21.8528 20.625V25H0Z" fill="black"/>
</svg>
