<svg width="60" height="60" viewBox="0 0 60 60" fill="none" xmlns="http://www.w3.org/2000/svg">
<path d="M28.0257 32.4074C28.521 31.9248 28.5185 31.1447 28.0202 30.665C27.5219 30.1853 26.7165 30.1876 26.2212 30.6703L28.0257 32.4074ZM37.6767 37.6965L36.4392 37.411L36.4375 37.4177L37.6767 37.6965ZM29.2913 25.5621C29.099 26.2166 29.491 26.8982 30.1667 27.0844C30.8424 27.2707 31.5461 26.891 31.7384 26.2365L29.2913 25.5621ZM40.306 16.4251L43.9562 18.555L45.269 16.4441L41.6188 14.3142L40.306 16.4251ZM28.5523 42.7619L27.4255 42.1044L26.1127 44.2151L27.2394 44.8726L28.5523 42.7619ZM36.3663 37.7189L35.9456 39.517L38.4269 40.0616L38.8475 38.2635L36.3663 37.7189ZM26.4673 33.8931L27.7978 32.6258L26.014 30.8687L24.6835 32.1359L26.4673 33.8931ZM36.3807 18.9237L41.5235 16.4755L40.4013 14.2638L35.2585 16.7121L36.3807 18.9237ZM43.3446 17.598L43.8181 23.3233L46.3542 23.1265L45.8806 17.4012L43.3446 17.598ZM42.0754 15.9662L42.7988 14.6999L40.5728 13.5067L39.8492 14.7731L42.0754 15.9662ZM42.9168 14.6693L44.241 15.4419L45.5538 13.331L44.2296 12.5584L42.9168 14.6693ZM44.2713 15.552L43.4996 16.903L45.7258 18.0962L46.4975 16.7452L44.2713 15.552ZM43.8181 23.3233C43.8314 23.4836 43.8368 23.5498 43.8409 23.6114L46.38 23.455C46.3742 23.3685 46.3667 23.2785 46.3542 23.1265L43.8181 23.3233ZM42.8107 31.7422C42.9256 31.6442 42.9947 31.5855 43.06 31.5278L41.3464 29.7062C41.3011 29.7461 41.2518 29.7884 41.1298 29.8922L42.8107 31.7422ZM43.8409 23.6114C43.9939 25.9411 43.0625 28.1918 41.3464 29.7062L43.06 31.5278C45.363 29.4954 46.5804 26.51 46.38 23.455L43.8409 23.6114ZM32.1255 24.5495C32.1535 24.3912 32.165 24.3259 32.1769 24.2655L29.6767 23.8089C29.6601 23.8941 29.6444 23.9829 29.6178 24.1329L32.1255 24.5495ZM35.2585 16.7121C35.1223 16.7769 35.0404 16.8158 34.9622 16.8547L36.1244 19.0469C36.178 19.0203 36.2363 18.9924 36.3807 18.9237L35.2585 16.7121ZM32.1769 24.2655C32.6216 21.9798 34.0911 20.0582 36.1244 19.0469L34.9622 16.8547C32.2045 18.2264 30.2616 20.8037 29.6767 23.8089L32.1769 24.2655ZM27.7978 32.6258C27.9055 32.5233 27.9664 32.4653 28.0257 32.4074L26.2212 30.6703C26.1746 30.7158 26.1258 30.7623 26.014 30.8687L27.7978 32.6258ZM29.6178 24.1329C29.5908 24.2855 29.5789 24.3528 29.5667 24.4176L32.0693 24.8609C32.0848 24.7796 32.0994 24.6968 32.1255 24.5495L29.6178 24.1329ZM38.8475 38.2635C38.8643 38.1914 38.8814 38.1192 38.8943 38.0649C38.9008 38.0379 38.9062 38.0154 38.9099 37.9996C38.9118 37.9918 38.9133 37.9857 38.9142 37.9816C38.9147 37.9794 38.915 37.978 38.9154 37.977C38.9152 37.9771 38.9155 37.9763 38.9154 37.977C38.9154 37.977 38.9157 37.9755 37.6767 37.6965C36.4375 37.4177 36.4375 37.4177 36.4375 37.4177C36.4375 37.4179 36.4377 37.4176 36.4375 37.4177C36.4375 37.4181 36.4372 37.419 36.437 37.4197C36.4368 37.4209 36.4363 37.4225 36.4358 37.4248C36.4348 37.4292 36.4333 37.4356 36.4312 37.4439C36.4273 37.4603 36.4217 37.4836 36.4151 37.5117C36.4019 37.5676 36.3841 37.6428 36.3663 37.7189L38.8475 38.2635ZM41.1298 29.8922C41.0168 29.9886 40.9527 30.0432 40.8903 30.0977L42.593 31.9287C42.6421 31.886 42.6933 31.8423 42.8107 31.7422L41.1298 29.8922ZM27.4255 42.1044C26.3546 41.4794 25.6091 41.0436 25.0587 40.6685C24.5133 40.297 24.258 40.0488 24.1109 39.8377L22.0019 41.2159C22.4023 41.7909 22.9483 42.2437 23.5949 42.6842C24.2364 43.1213 25.0735 43.6089 26.1127 44.2151L27.4255 42.1044ZM24.6835 32.1359C23.813 32.965 23.1124 33.6312 22.5904 34.2033C22.0645 34.7796 21.6404 35.3433 21.3856 35.9912L23.7632 36.8684C23.8586 36.6257 24.0515 36.3232 24.4967 35.8353C24.9458 35.3431 25.5707 34.7471 26.4673 33.8931L24.6835 32.1359ZM24.1109 39.8377C23.5091 38.9735 23.3756 37.8541 23.7632 36.8684L21.3856 35.9912C20.7052 37.7217 20.9342 39.6829 22.0019 41.2159L24.1109 39.8377ZM27.2394 44.8726C28.2784 45.4789 29.115 45.9679 29.8109 46.3111C30.5098 46.6558 31.1794 46.9124 31.8894 46.977L32.1273 44.5235C31.8901 44.5018 31.5583 44.4075 30.9653 44.1151C30.3693 43.8212 29.6234 43.3868 28.5523 42.7619L27.2394 44.8726ZM35.9456 39.517C35.6624 40.728 35.4634 41.5755 35.2653 42.2174C35.0682 42.8565 34.904 43.1777 34.7461 43.3796L36.774 44.8677C37.2043 44.3177 37.4738 43.6658 37.7031 42.9229C37.9314 42.1824 38.1514 41.2389 38.4269 40.0616L35.9456 39.517ZM31.8894 46.977C33.7848 47.1493 35.619 46.3443 36.774 44.8677L34.7461 43.3796C34.1077 44.1958 33.1209 44.6139 32.1273 44.5235L31.8894 46.977ZM44.241 15.4419C44.3417 15.5007 44.4187 15.5456 44.484 15.5851C44.5495 15.6246 44.588 15.6496 44.6118 15.6661C44.6599 15.6996 44.5917 15.6613 44.5225 15.5563L46.6666 14.2298C46.4904 13.9626 46.2704 13.7859 46.0952 13.664C45.9322 13.5507 45.7329 13.4355 45.5538 13.331L44.241 15.4419ZM46.4975 16.7452C46.5988 16.5679 46.7119 16.3717 46.7947 16.1947C46.8837 16.0043 46.9831 15.7447 46.9978 15.428L44.4562 15.3167C44.4622 15.1922 44.5013 15.1261 44.4769 15.1784C44.4649 15.2041 44.4443 15.2444 44.4081 15.3103C44.3718 15.3762 44.3283 15.4523 44.2713 15.552L46.4975 16.7452ZM44.5225 15.5563C44.4754 15.4849 44.4523 15.4013 44.4562 15.3167L46.9978 15.428C47.0175 15.0051 46.9018 14.5866 46.6666 14.2298L44.5225 15.5563ZM42.7988 14.6999C42.8597 14.5933 42.9063 14.5116 42.9475 14.4421C42.9889 14.3726 43.0154 14.3309 43.0334 14.3049C43.0705 14.2509 43.0317 14.3231 42.9168 14.3964L41.516 12.3394C41.2272 12.5239 41.0419 12.7557 40.9166 12.9377C40.7994 13.108 40.6812 13.3168 40.5728 13.5067L42.7988 14.6999ZM44.2296 12.5584C44.0376 12.4464 43.8276 12.3227 43.6382 12.2319C43.4358 12.1349 43.1558 12.0237 42.8103 12.0037L42.658 14.4636C42.5208 14.4556 42.4499 14.4119 42.5099 14.4406C42.5389 14.4545 42.5834 14.4777 42.655 14.518C42.7265 14.5583 42.8091 14.6065 42.9168 14.6693L44.2296 12.5584ZM42.9168 14.3964C42.8403 14.4453 42.7496 14.4689 42.658 14.4636L42.8103 12.0037C42.3527 11.9771 41.8987 12.0949 41.516 12.3394L42.9168 14.3964ZM31.7384 26.2365C31.8709 25.7852 31.9815 25.3262 32.0693 24.8609L29.5667 24.4176C29.4935 24.805 29.4015 25.1869 29.2913 25.5621L31.7384 26.2365ZM38.9142 37.9816C39.1849 36.8815 39.6089 35.8353 40.1681 34.8716L37.9501 33.6642C37.2749 34.8281 36.7643 36.0888 36.4392 37.411L38.9142 37.9816ZM40.1681 34.8716C40.8089 33.7671 41.6264 32.772 42.593 31.9287L40.8903 30.0977C39.7142 31.1237 38.7239 32.3307 37.9501 33.6642L40.1681 34.8716Z" fill="#1C274C"/>
<path d="M43 24.3146L41.7343 24.7658C40.3613 25.2553 38.8497 24.967 37.7196 24C36.4199 22.8881 34.6343 22.6858 33.1456 23.4818L32 24.0945" stroke="#1C274C" stroke-width="3.75" stroke-linecap="square"/>
</svg>
